fontCallback.success({"glyphs":{"S":{"x_min":66.671875,"x_max":802.84375,"ha":739,"o":"m 112 151 q 213 120 163 133 q 323 108 263 108 q 504 160 441 108 q 568 300 568 212 q 531 395 568 356 q 419 475 494 434 q 336 525 373 500 q 272 580 298 551 q 231 645 245 609 q 216 727 216 682 q 241 845 216 793 q 313 936 266 898 q 425 994 359 973 q 570 1015 490 1015 q 700 1004 645 1015 q 802 973 754 993 q 786 913 797 944 q 758 855 776 883 q 677 884 722 872 q 573 897 632 897 q 491 888 529 897 q 426 863 454 880 q 382 820 398 847 q 366 755 366 793 q 400 663 366 700 q 502 588 433 626 q 595 534 554 561 q 664 477 636 508 q 708 409 693 447 q 723 322 723 372 q 695 183 723 245 q 613 76 666 120 q 486 7 561 31 q 316 -16 411 -16 q 179 -4 240 -16 q 66 26 118 6 q 112 151 77 87 "},"¦":{"x_min":54.171875,"x_max":418.09375,"ha":326,"o":"m 283 1077 q 317 1082 300 1080 q 351 1083 334 1083 q 386 1082 369 1083 q 418 1077 402 1080 l 337 615 q 304 611 322 612 q 269 609 287 609 q 234 611 251 609 q 202 615 218 612 l 283 1077 m 134 229 q 168 233 151 231 q 202 234 186 234 q 237 233 220 234 q 269 229 254 231 l 188 -233 q 155 -237 172 -236 q 120 -238 138 -238 q 86 -237 102 -238 q 54 -233 69 -236 l 134 229 "},"/":{"x_min":31.953125,"x_max":666.71875,"ha":517,"o":"m 527 998 q 595 1004 559 1004 q 631 1002 612 1004 q 666 998 650 1001 l 169 0 q 131 -4 151 -2 q 95 -5 112 -5 q 63 -4 80 -5 q 31 0 47 -2 l 527 998 "},"y":{"x_min":30.5625,"x_max":759.78125,"ha":695,"o":"m 361 69 q 440 244 405 165 q 503 390 475 323 q 554 512 531 456 q 597 618 577 568 q 609 661 605 640 q 613 693 613 682 q 613 704 613 700 q 612 712 612 708 q 670 716 638 716 l 758 716 q 759 705 759 711 q 759 694 759 700 q 745 622 759 661 q 715 544 732 583 q 581 256 652 409 q 420 -83 509 102 q 345 -215 381 -165 q 274 -293 309 -265 q 202 -330 238 -320 q 125 -340 166 -340 q 30 -326 76 -340 q 38 -268 31 -295 q 61 -219 45 -240 q 91 -227 73 -223 q 125 -230 109 -230 q 168 -224 145 -230 q 214 -194 190 -218 q 266 -125 238 -170 q 327 0 294 -79 q 304 -1 316 -1 q 279 -1 291 -1 q 258 -1 269 -1 q 238 0 247 -1 q 192 355 215 177 q 145 712 169 533 q 181 716 165 715 q 216 718 197 718 q 254 716 236 718 q 290 712 272 715 l 361 69 "},"Á":{"x_min":48.609375,"x_max":830.453125,"ha":832,"o":"m 502 998 q 546 1002 520 1001 q 591 1002 572 1002 q 634 1002 612 1002 q 672 998 655 1001 l 808 0 q 727 -4 768 -4 q 659 0 694 -4 l 633 234 l 297 234 l 195 0 q 120 -4 162 -4 q 82 -3 101 -4 q 48 0 63 -2 l 502 998 m 619 356 l 562 838 l 351 356 l 619 356 m 651 1232 q 690 1236 667 1234 q 737 1237 713 1237 q 788 1236 762 1237 q 830 1232 815 1234 l 629 1079 q 593 1075 615 1076 q 549 1075 572 1075 q 511 1076 530 1075 q 481 1080 492 1077 l 651 1232 "},"g":{"x_min":51.390625,"x_max":783.390625,"ha":764,"o":"m 559 161 q 519 99 544 130 q 461 42 494 68 q 386 0 427 16 q 298 -16 345 -16 q 160 43 206 -16 q 113 208 113 104 q 144 400 113 306 q 234 567 175 494 q 383 684 294 640 q 590 729 472 729 q 692 721 640 729 q 783 700 744 713 q 721 352 751 525 q 659 5 691 180 q 604 -154 643 -88 q 508 -260 565 -219 q 379 -320 451 -301 q 223 -338 306 -338 q 129 -330 176 -338 q 51 -309 81 -322 q 81 -198 52 -250 q 147 -213 109 -205 q 229 -220 184 -220 q 340 -208 291 -220 q 426 -166 388 -195 q 489 -90 463 -137 q 530 27 515 -43 l 559 161 m 632 605 q 556 613 598 613 q 431 581 487 613 q 337 496 376 550 q 277 375 298 443 q 255 237 255 308 q 280 134 255 170 q 351 97 305 97 q 435 125 395 97 q 507 201 475 152 q 564 315 540 250 q 604 458 588 381 l 632 605 "},"²":{"x_min":144.453125,"x_max":601.4375,"ha":625,"o":"m 144 441 l 365 648 q 441 727 408 688 q 475 813 475 765 q 395 888 475 888 q 329 879 363 888 q 266 857 294 869 q 250 899 258 876 q 241 947 243 922 q 327 977 281 965 q 425 988 373 988 q 554 947 506 988 q 601 834 601 905 q 589 765 601 797 q 558 705 577 733 q 511 651 538 677 q 452 595 483 625 l 375 525 l 580 525 q 562 425 580 476 l 147 425 l 144 441 "},"ë":{"x_min":120.84375,"x_max":740.5,"ha":692,"o":"m 258 283 q 305 143 262 190 q 438 95 348 95 q 544 109 494 95 q 634 137 594 122 q 652 87 647 116 q 658 29 658 58 q 607 11 637 19 q 545 -3 577 2 q 479 -13 512 -9 q 418 -16 445 -16 q 279 4 336 -16 q 188 64 223 26 q 136 154 152 102 q 120 268 120 206 q 149 435 120 352 q 231 583 177 518 q 359 688 284 648 q 525 729 433 729 q 670 684 616 729 q 723 563 723 638 q 693 457 723 502 q 611 380 663 412 q 486 327 558 348 q 330 294 415 306 l 258 283 m 345 400 q 463 428 416 412 q 537 463 509 444 q 576 502 565 481 q 587 548 587 523 q 565 600 587 580 q 501 620 543 620 q 419 600 456 620 q 352 547 381 580 q 301 472 322 515 q 269 386 280 430 l 345 400 m 290 838 q 297 909 291 875 q 315 977 302 943 q 352 982 333 980 q 386 983 371 983 q 421 982 401 983 q 457 977 440 980 q 450 907 455 941 q 432 838 444 873 q 361 834 396 834 q 326 835 346 834 q 290 838 307 836 m 573 838 q 580 909 575 875 q 598 977 584 943 q 634 982 615 980 q 669 983 653 983 q 704 982 684 983 q 740 977 723 980 q 732 908 737 941 q 715 838 726 875 q 644 834 679 834 q 609 835 629 834 q 573 838 590 836 "},"Î":{"x_min":129.171875,"x_max":612.609375,"ha":400,"o":"m 304 998 q 340 1002 322 1001 q 376 1004 358 1004 q 413 1002 395 1004 q 447 998 430 1001 l 272 0 q 235 -4 252 -2 q 198 -5 218 -5 q 161 -4 179 -5 q 129 0 144 -2 l 304 998 m 343 1234 q 384 1238 361 1237 q 426 1240 407 1240 q 460 1238 440 1240 q 498 1234 480 1237 l 612 1082 q 580 1077 597 1079 q 545 1076 564 1076 q 511 1077 530 1076 q 475 1083 493 1079 l 412 1166 l 316 1082 q 277 1077 298 1079 q 238 1076 255 1076 q 200 1077 219 1076 q 166 1082 182 1079 l 343 1234 "},"e":{"x_min":120.84375,"x_max":723.671875,"ha":692,"o":"m 258 283 q 305 143 262 190 q 438 95 348 95 q 544 109 494 95 q 634 137 594 122 q 652 87 647 116 q 658 29 658 58 q 607 11 637 19 q 545 -3 577 2 q 479 -13 512 -9 q 418 -16 445 -16 q 279 4 336 -16 q 188 64 223 26 q 136 154 152 102 q 120 268 120 206 q 149 435 120 352 q 231 583 177 518 q 359 688 284 648 q 525 729 433 729 q 670 684 616 729 q 723 563 723 638 q 693 457 723 502 q 611 380 663 412 q 486 327 558 348 q 330 294 415 306 l 258 283 m 345 400 q 463 428 416 412 q 537 463 509 444 q 576 502 565 481 q 587 548 587 523 q 565 600 587 580 q 501 620 543 620 q 419 600 456 620 q 352 547 381 580 q 301 472 322 515 q 269 386 280 430 l 345 400 "},"Ã":{"x_min":48.609375,"x_max":836.171875,"ha":832,"o":"m 502 998 q 546 1002 520 1001 q 591 1002 572 1002 q 634 1002 612 1002 q 672 998 655 1001 l 808 0 q 727 -4 768 -4 q 659 0 694 -4 l 633 234 l 297 234 l 195 0 q 120 -4 162 -4 q 82 -3 101 -4 q 48 0 63 -2 l 502 998 m 619 356 l 562 838 l 351 356 l 619 356 m 368 1177 q 431 1226 394 1205 q 512 1247 468 1247 q 565 1239 541 1247 q 611 1222 588 1232 q 656 1204 633 1212 q 707 1197 679 1197 q 749 1204 730 1197 q 795 1236 768 1212 q 820 1200 807 1222 q 836 1158 833 1177 q 771 1112 808 1133 q 690 1091 734 1091 q 637 1099 661 1091 q 591 1116 613 1107 q 546 1132 569 1125 q 498 1140 523 1140 q 453 1132 472 1140 q 408 1102 434 1123 q 383 1137 395 1116 q 368 1177 370 1158 "},"J":{"x_min":43.0625,"x_max":598.65625,"ha":547,"o":"m 436 875 l 269 875 q 274 937 269 905 q 290 998 279 969 l 598 998 l 472 277 q 433 137 456 194 q 373 46 409 80 q 287 -2 337 12 q 169 -16 237 -16 q 100 -11 130 -16 q 43 1 69 -6 q 51 63 45 33 q 72 122 56 94 q 111 112 87 118 q 163 106 136 106 q 218 111 193 106 q 265 129 244 115 q 301 172 286 144 q 325 245 316 200 l 436 875 "},"»":{"x_min":63.890625,"x_max":841.9375,"ha":842,"o":"m 687 379 l 505 677 q 544 682 525 680 q 583 683 564 683 q 619 682 601 683 q 653 677 636 680 l 841 361 l 550 62 q 513 58 533 59 q 473 56 493 56 q 432 58 454 56 q 391 62 411 59 l 687 379 m 359 379 l 177 677 q 216 682 197 680 q 255 683 236 683 q 291 682 273 683 q 325 677 308 680 l 513 361 l 222 62 q 185 58 205 59 q 145 56 165 56 q 104 58 126 56 q 63 62 83 59 l 359 379 "},"©":{"x_min":152.796875,"x_max":1183.421875,"ha":1175,"o":"m 808 330 q 837 237 832 290 q 767 215 805 222 q 688 208 729 208 q 574 229 625 208 q 488 290 523 251 q 436 381 454 329 q 418 497 418 434 q 436 613 418 559 q 489 707 455 668 q 572 770 523 747 q 684 793 622 793 q 764 787 734 793 q 827 770 794 782 q 822 721 826 745 q 807 675 818 697 q 750 688 775 684 q 695 691 726 691 q 575 639 616 691 q 534 497 534 587 q 579 356 534 404 q 698 308 623 308 q 754 313 729 308 q 808 330 780 318 m 668 72 q 841 105 765 72 q 971 196 918 138 q 1053 331 1025 254 q 1082 498 1082 409 q 1053 665 1082 587 q 971 800 1025 743 q 841 891 918 858 q 668 925 765 925 q 495 891 572 925 q 364 800 418 858 q 282 665 311 743 q 254 498 254 587 q 282 331 254 409 q 364 196 311 254 q 495 105 418 138 q 668 72 572 72 m 668 -18 q 457 21 552 -18 q 295 129 362 61 q 190 293 227 198 q 152 498 152 387 q 190 703 152 608 q 295 867 227 798 q 457 975 362 936 q 668 1015 552 1015 q 878 976 783 1015 q 1041 868 973 937 q 1145 704 1108 798 q 1183 498 1183 609 q 1145 293 1183 387 q 1041 129 1108 198 q 878 21 973 61 q 668 -18 783 -18 "},"ò":{"x_min":123.625,"x_max":780.625,"ha":774,"o":"m 383 -16 q 188 54 254 -16 q 123 256 123 126 q 147 417 123 333 q 220 570 170 501 q 343 684 269 638 q 519 729 418 729 q 715 656 650 729 q 780 454 780 584 q 757 293 780 376 q 684 140 733 209 q 561 27 636 72 q 383 -16 486 -16 m 397 93 q 509 128 462 93 q 584 218 555 163 q 627 335 613 272 q 641 454 641 398 q 606 575 641 533 q 505 616 570 616 q 394 580 440 616 q 319 490 348 544 q 277 372 290 436 q 263 255 263 309 q 297 134 263 176 q 397 93 331 93 m 382 1001 q 423 1005 403 1004 q 468 1007 444 1007 q 514 1005 491 1007 q 558 1001 537 1004 l 686 825 q 619 819 654 819 q 580 820 598 819 q 547 825 562 822 l 382 1001 "},"^":{"x_min":163.90625,"x_max":732,"ha":733,"o":"m 461 997 q 497 1001 479 1000 q 531 1002 515 1002 q 569 1001 551 1002 q 605 997 587 1000 l 732 511 q 696 507 712 508 q 665 506 680 506 q 634 507 650 506 q 602 511 618 508 l 511 870 l 295 509 q 261 506 280 506 q 227 506 243 506 q 197 507 213 506 q 163 511 181 508 l 461 997 "},"«":{"x_min":119.453125,"x_max":898.484375,"ha":813,"o":"m 448 376 l 738 677 q 776 682 755 680 q 815 683 797 683 q 856 682 834 683 q 898 677 879 680 l 605 368 l 784 62 q 745 58 765 59 q 706 56 726 56 q 671 58 688 56 q 637 62 654 59 l 448 376 m 119 376 l 409 677 q 447 682 426 680 q 486 683 468 683 q 527 682 505 683 q 569 677 550 680 l 276 368 l 455 62 q 416 58 436 59 q 377 56 397 56 q 342 58 359 56 q 308 62 325 59 l 119 376 "},"D":{"x_min":129.171875,"x_max":966.75,"ha":950,"o":"m 304 998 q 354 1004 326 1001 q 411 1009 381 1007 q 468 1012 440 1011 q 520 1013 495 1013 q 722 984 637 1013 q 861 902 807 955 q 941 773 915 848 q 966 607 966 698 q 928 361 966 475 q 815 163 890 248 q 628 31 740 79 q 369 -16 516 -16 q 232 -11 294 -16 q 129 0 170 -6 l 304 998 m 291 116 q 342 111 309 113 q 405 109 375 109 q 577 145 501 109 q 707 245 654 181 q 787 397 759 309 q 815 587 815 484 q 747 812 815 734 q 526 890 679 890 q 474 888 498 890 q 426 883 450 886 l 291 116 "},"ÿ":{"x_min":30.5625,"x_max":759.78125,"ha":695,"o":"m 361 69 q 440 244 405 165 q 503 390 475 323 q 554 512 531 456 q 597 618 577 568 q 609 661 605 640 q 613 693 613 682 q 613 704 613 700 q 612 712 612 708 q 670 716 638 716 l 758 716 q 759 705 759 711 q 759 694 759 700 q 745 622 759 661 q 715 544 732 583 q 581 256 652 409 q 420 -83 509 102 q 345 -215 381 -165 q 274 -293 309 -265 q 202 -330 238 -320 q 125 -340 166 -340 q 30 -326 76 -340 q 38 -268 31 -295 q 61 -219 45 -240 q 91 -227 73 -223 q 125 -230 109 -230 q 168 -224 145 -230 q 214 -194 190 -218 q 266 -125 238 -170 q 327 0 294 -79 q 304 -1 316 -1 q 279 -1 291 -1 q 258 -1 269 -1 q 238 0 247 -1 q 192 355 215 177 q 145 712 169 533 q 181 716 165 715 q 216 718 197 718 q 254 716 236 718 q 290 712 272 715 l 361 69 m 255 838 q 262 909 256 875 q 280 977 267 943 q 317 982 298 980 q 351 983 336 983 q 386 982 366 983 q 422 977 405 980 q 415 907 420 941 q 397 838 409 873 q 326 834 361 834 q 291 835 311 834 q 255 838 272 836 m 538 838 q 545 909 540 875 q 563 977 549 943 q 599 982 580 980 q 634 983 618 983 q 669 982 649 983 q 705 977 688 980 q 697 908 702 941 q 680 838 691 875 q 609 834 644 834 q 574 835 594 834 q 538 838 555 836 "},"í":{"x_min":144.453125,"x_max":523.9375,"ha":396,"o":"m 347 1001 q 391 1005 369 1004 q 437 1007 414 1007 q 482 1005 461 1007 q 523 1001 503 1004 l 351 825 q 317 820 336 822 q 278 819 298 819 q 246 820 262 819 q 212 825 229 822 l 347 1001 m 250 602 l 163 602 q 167 657 163 630 q 181 712 170 683 l 404 712 l 279 0 q 243 -3 263 -2 q 208 -4 223 -4 q 176 -3 193 -4 q 144 0 159 -2 l 250 602 "},"w":{"x_min":150.015625,"x_max":1126.484375,"ha":1061,"o":"m 150 712 q 187 716 169 715 q 225 718 205 718 q 297 712 265 718 l 351 159 l 573 712 q 606 716 588 715 q 640 718 625 718 q 675 716 658 718 q 708 712 691 715 l 776 158 l 950 579 q 973 650 966 619 q 979 700 979 682 l 979 712 q 1013 716 995 715 q 1050 718 1030 718 q 1126 712 1094 718 l 1126 707 q 1114 642 1126 676 q 1077 556 1102 608 l 819 0 q 781 -4 801 -2 q 741 -5 761 -5 q 707 -4 725 -5 q 673 0 688 -2 l 604 512 l 393 0 q 354 -4 375 -2 q 316 -5 334 -5 q 281 -4 300 -5 q 247 0 262 -2 l 150 712 "},"$":{"x_min":101.390625,"x_max":815.34375,"ha":833,"o":"m 347 -16 l 341 -16 q 209 -3 275 -16 q 101 29 144 9 q 115 90 106 59 q 140 154 125 122 q 240 120 190 133 q 356 108 290 108 q 529 156 466 108 q 593 288 593 205 q 554 389 593 350 q 436 470 515 429 q 354 518 391 494 q 290 572 316 543 q 249 636 263 601 q 234 720 234 672 q 311 909 234 836 q 526 997 387 983 l 547 1120 q 595 1126 569 1126 q 620 1125 607 1126 q 644 1120 633 1123 l 623 1001 q 727 986 682 998 q 815 959 773 975 q 801 900 811 930 q 773 841 791 869 q 689 872 737 859 q 579 884 641 884 q 502 877 538 884 q 440 852 466 869 q 398 808 413 834 q 383 744 383 782 q 421 654 383 691 q 534 577 459 618 q 626 523 586 550 q 693 466 666 497 q 734 400 720 436 q 748 315 748 363 q 728 200 748 254 q 669 104 708 147 q 574 34 630 62 q 445 -6 518 5 l 419 -163 q 370 -169 397 -169 q 322 -163 343 -169 l 347 -16 "},"\\":{"x_min":190.296875,"x_max":548.65625,"ha":568,"o":"m 190 998 q 225 1002 209 1001 q 259 1004 241 1004 q 293 1002 276 1004 q 326 998 309 1001 l 548 0 q 480 -5 516 -5 q 446 -4 463 -5 q 412 0 429 -2 l 190 998 "},"Ì":{"x_min":129.171875,"x_max":496.328125,"ha":400,"o":"m 304 998 q 340 1002 322 1001 q 376 1004 358 1004 q 413 1002 395 1004 q 447 998 430 1001 l 272 0 q 235 -4 252 -2 q 198 -5 218 -5 q 161 -4 179 -5 q 129 0 144 -2 l 304 998 m 189 1237 q 233 1241 206 1240 q 286 1243 260 1243 q 332 1241 310 1243 q 369 1237 354 1240 l 496 1080 q 465 1075 485 1077 q 426 1073 446 1073 q 386 1075 404 1073 q 356 1079 368 1076 l 189 1237 "},"µ":{"x_min":41.671875,"x_max":816.734375,"ha":806,"o":"m 219 712 q 253 716 234 715 q 287 718 272 718 q 321 716 302 718 q 355 712 340 715 l 290 340 q 283 286 286 313 q 280 236 280 259 q 310 131 280 166 q 408 95 340 95 q 470 108 438 95 q 530 145 502 120 q 579 209 558 170 q 609 298 601 247 l 680 712 q 714 716 695 715 q 748 718 733 718 q 782 716 763 718 q 816 712 801 715 l 694 0 q 669 -4 683 -2 q 640 -5 655 -5 q 609 -4 625 -5 q 581 0 593 -2 l 581 15 q 582 52 581 33 q 586 88 583 72 q 501 11 550 40 q 383 -16 452 -16 q 295 2 334 -16 q 240 54 256 22 l 176 -327 q 141 -331 161 -330 q 106 -333 122 -333 q 73 -331 91 -333 q 41 -327 55 -330 l 219 712 "},"Ç":{"x_min":158.34375,"x_max":915.34375,"ha":801,"o":"m 470 -12 q 238 105 319 5 q 158 369 158 205 q 193 611 158 494 q 296 817 227 727 q 466 961 365 907 q 700 1015 568 1015 q 826 1004 773 1015 q 915 979 879 994 q 899 920 908 947 q 872 862 890 894 q 793 884 832 877 q 704 891 754 891 q 526 848 601 891 q 403 734 451 805 q 332 570 355 662 q 309 381 309 479 q 376 177 309 247 q 566 108 443 108 q 664 118 619 108 q 755 147 709 127 q 775 93 768 123 q 784 29 782 62 q 672 -3 736 6 q 554 -16 608 -13 l 518 -80 q 547 -77 531 -77 q 636 -108 605 -77 q 668 -186 668 -138 q 651 -257 668 -229 q 606 -303 634 -286 q 543 -327 579 -320 q 470 -334 508 -334 q 395 -326 427 -334 q 347 -308 362 -318 q 358 -268 350 -290 q 377 -231 366 -247 q 423 -245 398 -238 q 469 -251 448 -251 q 499 -250 483 -251 q 529 -243 515 -248 q 552 -226 543 -237 q 561 -195 561 -215 q 539 -159 561 -169 q 480 -148 518 -148 q 442 -151 461 -148 q 404 -158 423 -154 l 397 -151 l 470 -12 "},"-":{"x_min":134.734375,"x_max":506.984375,"ha":483,"o":"m 506 463 q 500 400 506 434 q 484 336 494 365 l 134 336 q 156 463 137 401 l 506 463 "},"Q":{"x_min":155.5625,"x_max":990.359375,"ha":974,"o":"m 911 -90 q 898 -153 908 -122 q 876 -208 888 -184 l 568 -151 q 579 -92 570 -122 q 604 -34 588 -62 l 911 -90 m 484 -16 q 339 9 401 -16 q 236 84 277 36 q 175 200 195 131 q 155 350 155 268 q 188 597 155 477 q 286 810 222 718 q 445 959 351 902 q 661 1015 540 1015 q 807 987 744 1015 q 909 911 869 959 q 970 794 950 862 q 990 645 990 726 q 956 395 990 515 q 857 184 922 276 q 699 38 793 93 q 484 -16 605 -16 m 500 105 q 645 153 581 105 q 752 278 708 201 q 818 452 795 355 q 841 644 841 548 q 795 823 841 757 q 644 890 748 890 q 497 843 561 890 q 390 719 433 795 q 325 546 347 643 q 302 351 302 450 q 350 170 302 234 q 500 105 398 105 "},"M":{"x_min":111.125,"x_max":1123.703125,"ha":1113,"o":"m 330 998 q 370 1002 348 1001 q 411 1004 391 1004 q 448 1002 430 1004 q 483 998 466 1001 l 619 380 l 973 998 q 1009 1002 988 1001 q 1050 1004 1030 1004 q 1088 1002 1069 1004 q 1123 998 1108 1001 l 995 0 q 960 -4 977 -2 q 925 -5 943 -5 q 888 -4 905 -5 q 858 0 872 -2 l 961 759 l 641 206 q 584 202 609 202 q 530 206 556 202 l 405 762 l 243 0 q 211 -4 227 -2 q 176 -5 194 -5 q 143 -4 159 -5 q 111 0 126 -2 l 330 998 "},"C":{"x_min":156.953125,"x_max":913.96875,"ha":801,"o":"m 754 147 q 784 29 780 97 q 725 8 757 16 q 659 -5 693 0 q 593 -13 626 -11 q 534 -16 561 -16 q 254 86 352 -16 q 156 369 156 188 q 191 611 156 494 q 295 817 226 727 q 465 961 363 907 q 700 1015 566 1015 q 825 1004 773 1015 q 913 979 877 994 q 897 920 907 947 q 870 862 888 894 q 791 884 830 877 q 704 891 752 891 q 526 848 601 891 q 403 734 451 805 q 332 570 355 662 q 309 381 309 479 q 375 177 309 247 q 566 108 441 108 q 664 118 619 108 q 754 147 709 127 "},"!":{"x_min":116.671875,"x_max":444.484375,"ha":385,"o":"m 295 998 q 368 1002 333 1002 q 444 998 404 1002 l 311 298 q 244 294 275 294 q 179 298 209 294 l 295 998 m 116 0 q 143 154 116 79 q 180 158 162 156 q 218 159 198 159 q 254 158 236 159 q 290 154 273 156 q 283 77 290 113 q 265 0 276 40 q 227 -4 245 -2 q 190 -5 208 -5 q 152 -4 170 -5 q 116 0 133 -2 "},"ç":{"x_min":122.234375,"x_max":697.28125,"ha":638,"o":"m 347 -11 q 176 77 230 5 q 122 268 122 150 q 149 434 122 351 q 229 582 176 516 q 360 688 283 648 q 537 729 437 729 q 625 720 583 729 q 697 701 666 712 q 686 643 695 675 q 661 588 676 612 q 600 607 633 600 q 531 615 568 615 q 413 585 463 615 q 330 507 363 555 q 281 400 297 459 q 265 281 265 340 q 311 142 265 187 q 440 97 358 97 q 511 103 476 97 q 584 125 547 109 q 602 78 595 105 q 608 16 608 51 q 520 -6 569 1 q 427 -16 470 -15 l 393 -80 q 404 -78 398 -79 q 420 -77 411 -77 q 510 -108 479 -77 q 541 -186 541 -138 q 525 -257 541 -229 q 480 -303 508 -286 q 417 -327 452 -320 q 344 -334 381 -334 q 268 -326 301 -334 q 220 -308 236 -318 q 232 -268 225 -290 q 252 -231 240 -247 q 297 -245 272 -238 q 344 -251 322 -251 q 374 -250 358 -251 q 404 -243 390 -248 q 427 -226 418 -237 q 436 -195 436 -215 q 413 -159 436 -169 q 355 -148 391 -148 q 316 -151 336 -148 q 279 -158 297 -154 l 272 -151 l 347 -11 "},"È":{"x_min":127.78125,"x_max":832.015625,"ha":728,"o":"m 302 998 l 832 998 q 809 873 832 936 l 423 873 l 373 588 l 682 588 q 659 463 682 525 l 351 463 q 321 293 336 377 q 291 123 306 209 l 688 123 q 682 61 684 87 q 666 0 679 34 l 127 0 l 302 998 m 379 1237 q 423 1241 396 1240 q 476 1243 450 1243 q 522 1241 500 1243 q 559 1237 544 1240 l 686 1080 q 655 1075 675 1077 q 616 1073 636 1073 q 576 1075 594 1073 q 546 1079 558 1076 l 379 1237 "},"{":{"x_min":130.5625,"x_max":659.78125,"ha":528,"o":"m 222 186 q 226 250 226 220 q 204 341 226 302 q 130 411 181 379 l 133 426 q 195 462 169 444 q 241 502 222 480 q 274 553 261 525 q 297 620 287 581 q 341 811 322 729 q 390 950 359 894 q 473 1035 420 1007 q 622 1063 526 1063 q 641 1063 632 1063 q 659 1061 650 1062 q 653 1005 659 1036 q 638 951 647 975 l 623 951 q 550 939 579 951 q 504 903 522 927 q 476 841 487 879 q 455 748 465 802 q 452 732 452 737 l 441 672 q 416 567 429 609 q 384 496 402 525 q 342 449 366 468 q 286 413 318 430 q 343 357 325 390 q 362 263 362 325 q 356 197 362 238 q 343 113 351 156 q 330 30 336 69 q 325 -29 325 -8 q 352 -101 325 -81 q 448 -120 379 -120 q 444 -173 448 -145 q 430 -229 440 -201 q 420 -229 425 -229 q 411 -230 415 -230 q 240 -183 293 -230 q 188 -38 188 -136 q 191 5 188 -18 q 198 54 194 29 l 222 186 "},"X":{"x_min":36.109375,"x_max":952.859375,"ha":843,"o":"m 361 523 l 233 998 q 312 1002 272 1002 q 380 998 344 1002 l 502 519 l 195 0 q 152 -3 175 -2 q 112 -4 130 -4 q 36 0 73 -4 l 361 523 m 513 519 l 798 998 q 873 1002 836 1002 q 952 998 915 1002 l 658 522 l 822 0 q 745 -4 782 -4 q 673 0 712 -4 l 513 519 "},"ô":{"x_min":123.625,"x_max":780.625,"ha":774,"o":"m 383 -16 q 188 54 254 -16 q 123 256 123 126 q 147 417 123 333 q 220 570 170 501 q 343 684 269 638 q 519 729 418 729 q 715 656 650 729 q 780 454 780 584 q 757 293 780 376 q 684 140 733 209 q 561 27 636 72 q 383 -16 486 -16 m 397 93 q 509 128 462 93 q 584 218 555 163 q 627 335 613 272 q 641 454 641 398 q 606 575 641 533 q 505 616 570 616 q 394 580 440 616 q 319 490 348 544 q 277 372 290 436 q 263 255 263 309 q 297 134 263 176 q 397 93 331 93 m 483 1001 q 523 1005 500 1004 q 565 1007 546 1007 q 604 1005 581 1007 q 646 1000 628 1004 l 749 825 q 720 820 736 822 q 686 819 704 819 q 650 820 670 819 q 614 825 631 822 l 557 934 l 460 825 q 422 820 443 822 q 383 819 400 819 q 344 820 364 819 q 311 825 325 822 l 483 1001 "},"¼":{"x_min":194.453125,"x_max":1346.109375,"ha":1458,"o":"m 1136 983 q 1174 987 1153 986 q 1212 988 1194 988 q 1250 987 1230 988 q 1285 983 1269 986 l 515 1 q 479 -2 496 -1 q 446 -4 462 -4 q 406 -2 428 -4 q 368 1 385 -1 l 1136 983 m 337 523 l 393 840 l 262 787 q 230 877 234 825 l 500 987 l 536 987 l 455 523 l 583 523 q 579 474 583 498 q 565 425 576 450 l 194 425 q 197 474 194 450 q 213 523 201 498 l 337 523 m 873 127 l 1169 577 q 1223 563 1197 573 q 1266 541 1248 553 l 1041 202 l 1178 202 l 1198 316 q 1223 319 1211 319 q 1250 320 1234 320 q 1301 316 1278 320 l 1282 202 l 1346 202 q 1342 155 1346 181 q 1330 109 1339 130 l 1266 109 l 1247 0 q 1225 -2 1236 -1 q 1200 -3 1214 -3 q 1172 -2 1184 -3 q 1144 1 1159 -1 l 1162 109 l 880 109 l 873 127 "},"#":{"x_min":120.84375,"x_max":1037.578125,"ha":992,"o":"m 125 327 q 131 363 127 345 q 140 400 136 380 l 315 400 l 375 629 l 208 629 q 214 684 211 654 q 227 737 218 713 l 404 737 l 461 958 q 495 961 480 961 q 527 962 509 962 q 556 962 541 962 q 586 959 570 962 l 529 737 l 754 737 l 811 958 q 845 961 830 961 q 876 962 861 962 q 906 962 891 962 q 937 959 920 962 l 880 737 l 1037 737 q 1029 684 1033 709 q 1018 629 1026 658 l 852 629 l 793 400 l 948 400 q 930 290 948 348 l 765 290 l 701 40 q 666 36 682 37 q 634 36 651 36 q 605 36 620 36 q 576 40 590 37 l 640 290 l 415 290 l 351 40 q 317 36 331 37 q 284 36 302 36 q 223 40 254 36 q 256 165 240 102 q 287 290 272 227 l 120 290 l 125 327 m 668 400 l 726 629 l 501 629 l 443 400 l 668 400 "},"Ê":{"x_min":127.78125,"x_max":832.015625,"ha":728,"o":"m 302 998 l 832 998 q 809 873 832 936 l 423 873 l 373 588 l 682 588 q 659 463 682 525 l 351 463 q 321 293 336 377 q 291 123 306 209 l 688 123 q 682 61 684 87 q 666 0 679 34 l 127 0 l 302 998 m 530 1234 q 571 1238 548 1237 q 613 1240 594 1240 q 647 1238 627 1240 q 685 1234 667 1237 l 799 1082 q 767 1077 784 1079 q 732 1076 751 1076 q 698 1077 717 1076 q 662 1083 680 1079 l 599 1166 l 503 1082 q 464 1077 485 1079 q 425 1076 442 1076 q 387 1077 406 1076 q 353 1082 369 1079 l 530 1234 "},")":{"x_min":-11.109375,"x_max":423.640625,"ha":469,"o":"m -11 -230 q 84 -78 33 -168 q 180 125 136 11 q 254 375 225 238 q 283 666 283 512 q 276 810 283 744 q 259 928 269 876 q 237 1018 248 980 q 218 1076 226 1055 q 254 1080 236 1079 q 293 1082 273 1082 q 326 1080 311 1082 q 352 1076 341 1079 q 402 904 380 1011 q 423 666 423 797 q 396 400 423 537 q 326 140 369 263 q 229 -79 283 18 q 125 -230 176 -177 q 94 -234 109 -233 q 59 -236 79 -236 q 21 -234 40 -236 q -11 -230 2 -233 "},"Å":{"x_min":50,"x_max":809.78125,"ha":840,"o":"m 504 995 q 457 1045 473 1013 q 441 1115 441 1076 q 455 1188 441 1154 q 493 1247 469 1222 q 551 1286 518 1272 q 625 1300 584 1300 q 733 1257 695 1300 q 770 1152 770 1215 q 744 1058 770 1100 q 673 995 718 1016 l 809 0 q 736 -4 777 -4 q 662 0 697 -4 q 648 116 655 58 q 634 234 641 175 l 300 234 l 197 0 q 138 -4 169 -4 l 101 -4 l 50 0 l 504 995 m 620 356 l 563 838 l 352 356 l 620 356 m 597 1045 q 659 1075 637 1045 q 682 1145 682 1105 q 667 1202 682 1179 q 616 1225 652 1225 q 552 1196 575 1225 q 529 1126 529 1168 q 545 1068 529 1090 q 597 1045 561 1045 "},"ø":{"x_min":88.890625,"x_max":809.78125,"ha":774,"o":"m 172 73 q 122 256 122 141 q 146 416 122 333 q 219 569 170 500 q 343 684 268 638 q 519 729 418 729 q 673 688 609 729 l 711 736 q 758 740 727 740 q 809 736 788 740 l 729 637 q 780 452 780 566 q 757 292 780 375 q 684 140 733 209 q 559 27 634 72 q 383 -16 484 -16 q 297 -6 336 -16 q 227 22 258 4 q 212 0 219 9 q 196 -16 205 -9 q 173 -27 187 -23 q 137 -31 159 -31 q 88 -27 106 -31 l 172 73 m 309 122 q 395 93 343 93 q 507 128 461 93 q 583 218 554 163 q 626 335 612 272 q 640 452 640 398 q 637 486 640 470 q 630 513 634 501 l 309 122 m 590 587 q 504 616 556 616 q 393 580 438 616 q 318 490 347 544 q 275 372 288 436 q 262 254 262 308 q 269 194 262 225 l 590 587 "},"â":{"x_min":113.890625,"x_max":780.625,"ha":770,"o":"m 632 607 q 597 612 615 611 q 556 613 579 613 q 432 581 487 613 q 338 496 377 550 q 277 375 298 443 q 256 237 256 308 q 280 134 256 170 q 351 97 304 97 q 434 125 394 97 q 508 202 475 152 q 566 317 541 251 q 604 458 590 383 l 632 607 m 711 302 q 686 159 695 219 q 677 55 677 100 q 678 27 677 37 q 682 1 679 16 q 648 -2 666 -1 q 615 -4 630 -4 q 584 -2 601 -4 q 552 1 568 -1 q 548 32 550 16 q 547 72 547 48 q 550 113 547 87 q 558 161 554 140 q 518 99 543 130 q 460 42 493 68 q 386 0 427 16 q 298 -16 345 -16 q 160 43 206 -16 q 113 208 113 104 q 144 400 113 306 q 234 567 175 494 q 383 684 294 640 q 590 729 472 729 q 691 721 640 729 q 780 700 741 713 l 711 302 m 513 1001 q 553 1005 530 1004 q 595 1007 576 1007 q 634 1005 611 1007 q 676 1000 658 1004 l 779 825 q 750 820 766 822 q 716 819 734 819 q 680 820 700 819 q 644 825 661 822 l 587 934 l 490 825 q 452 820 473 822 q 413 819 430 819 q 374 820 394 819 q 341 825 355 822 l 513 1001 "},"}":{"x_min":13.890625,"x_max":543.09375,"ha":522,"o":"m 50 -116 q 122 -104 94 -116 q 168 -68 151 -93 q 197 -6 186 -44 q 218 86 208 31 q 220 102 220 97 l 231 162 q 257 267 244 225 q 288 338 270 309 q 331 385 306 366 q 387 420 355 404 q 329 477 348 444 q 311 570 311 509 q 316 636 311 595 q 329 721 322 677 q 343 804 337 765 q 348 863 348 843 q 321 936 348 916 q 225 955 294 955 q 229 1008 225 980 q 243 1063 233 1036 q 253 1064 248 1063 q 262 1065 258 1065 q 432 1018 380 1065 q 484 873 484 970 q 481 829 484 852 q 475 780 479 805 l 451 648 q 447 584 447 612 q 469 493 447 531 q 543 423 491 455 l 540 408 q 477 372 504 390 q 431 331 451 354 q 399 281 412 309 q 376 213 386 252 q 332 22 351 105 q 283 -115 313 -59 q 200 -200 252 -172 q 51 -229 147 -229 q 32 -228 41 -229 q 13 -226 23 -227 q 20 -170 13 -201 q 34 -116 26 -140 l 50 -116 "},"Ä":{"x_min":48.609375,"x_max":837.84375,"ha":832,"o":"m 502 998 q 546 1002 520 1001 q 591 1002 572 1002 q 634 1002 612 1002 q 672 998 655 1001 l 808 0 q 727 -4 768 -4 q 659 0 694 -4 l 633 234 l 297 234 l 195 0 q 120 -4 162 -4 q 82 -3 101 -4 q 48 0 63 -2 l 502 998 m 619 356 l 562 838 l 351 356 l 619 356 m 371 1080 q 394 1220 371 1152 q 432 1225 414 1223 q 468 1226 451 1226 q 505 1225 486 1226 q 540 1220 525 1223 q 516 1080 540 1148 q 478 1076 497 1077 q 441 1075 460 1075 q 406 1076 425 1075 q 371 1080 387 1077 m 668 1080 q 692 1220 668 1150 q 729 1225 710 1223 q 765 1226 748 1226 q 802 1225 783 1226 q 837 1220 821 1223 q 814 1080 835 1150 q 776 1076 794 1077 q 739 1075 757 1075 q 703 1076 722 1075 q 668 1080 683 1077 "},"¸":{"x_min":176.40625,"x_max":490.3125,"ha":695,"o":"m 226 -151 l 322 31 l 404 31 l 344 -80 q 354 -78 348 -79 q 372 -77 361 -77 q 459 -108 427 -77 q 490 -186 490 -138 q 473 -257 490 -229 q 429 -303 456 -286 q 368 -327 402 -320 q 297 -334 333 -334 q 223 -326 255 -334 q 176 -308 191 -318 q 188 -268 180 -290 q 208 -231 195 -247 q 251 -245 227 -238 q 295 -251 275 -251 q 325 -250 309 -251 q 354 -243 340 -248 q 377 -226 368 -237 q 386 -195 386 -215 q 364 -159 386 -169 q 306 -148 343 -148 q 270 -151 288 -148 q 231 -158 251 -154 l 226 -151 "},"a":{"x_min":113.890625,"x_max":780.625,"ha":770,"o":"m 632 607 q 597 612 615 611 q 556 613 579 613 q 432 581 487 613 q 338 496 377 550 q 277 375 298 443 q 256 237 256 308 q 280 134 256 170 q 351 97 304 97 q 434 125 394 97 q 508 202 475 152 q 566 317 541 251 q 604 458 590 383 l 632 607 m 711 302 q 686 159 695 219 q 677 55 677 100 q 678 27 677 37 q 682 1 679 16 q 648 -2 666 -1 q 615 -4 630 -4 q 584 -2 601 -4 q 552 1 568 -1 q 548 32 550 16 q 547 72 547 48 q 550 113 547 87 q 558 161 554 140 q 518 99 543 130 q 460 42 493 68 q 386 0 427 16 q 298 -16 345 -16 q 160 43 206 -16 q 113 208 113 104 q 144 400 113 306 q 234 567 175 494 q 383 684 294 640 q 590 729 472 729 q 691 721 640 729 q 780 700 741 713 l 711 302 "},"=":{"x_min":175.015625,"x_max":819.515625,"ha":833,"o":"m 772 408 q 768 347 772 377 q 752 286 763 318 l 175 286 q 194 408 175 343 l 772 408 m 819 676 q 815 618 819 648 q 798 554 811 587 l 220 554 q 225 612 220 581 q 241 676 229 643 l 819 676 "},"N":{"x_min":127.78125,"x_max":976.46875,"ha":929,"o":"m 302 998 q 336 1002 318 1001 q 370 1002 355 1002 q 433 998 405 1002 l 713 245 l 844 998 q 871 1001 858 1000 q 898 1002 884 1002 l 932 1002 l 976 998 l 801 0 q 768 -3 786 -2 q 734 -4 751 -4 q 703 -3 719 -4 q 672 0 687 -2 l 390 748 l 261 0 q 206 -4 233 -4 l 172 -4 l 127 0 l 302 998 "},"ú":{"x_min":141.671875,"x_max":802.84375,"ha":789,"o":"m 230 712 q 266 716 245 715 q 301 718 286 718 q 334 716 316 718 q 368 712 352 715 l 293 284 q 284 205 284 240 q 310 126 284 150 q 379 102 336 102 q 452 125 416 102 q 520 193 488 148 q 578 302 552 237 q 619 452 604 368 l 665 712 q 701 716 682 715 q 736 718 720 718 q 770 716 751 718 q 802 712 788 715 l 729 300 q 704 156 713 216 q 695 52 695 97 q 696 24 695 34 q 698 -1 697 13 q 666 -5 683 -4 q 633 -6 648 -6 q 602 -5 619 -6 q 570 -1 584 -4 q 565 62 565 16 q 568 112 565 88 q 576 158 572 136 q 537 97 562 129 q 479 41 512 66 q 404 0 445 16 q 318 -16 363 -16 q 188 27 234 -16 q 141 165 141 72 q 144 211 141 186 q 151 261 147 237 l 230 712 m 586 1001 q 630 1005 608 1004 q 676 1007 653 1007 q 721 1005 700 1007 q 762 1001 742 1004 l 590 825 q 556 820 575 822 q 517 819 537 819 q 485 820 501 819 q 451 825 468 822 l 586 1001 "},"2":{"x_min":77.78125,"x_max":768.109375,"ha":833,"o":"m 386 322 q 478 416 436 372 q 550 502 520 459 q 597 586 580 544 q 615 673 615 629 q 580 756 615 725 q 470 787 545 787 q 363 770 411 787 q 269 734 315 754 q 240 851 243 786 q 356 891 293 872 q 498 909 419 909 q 696 852 625 909 q 768 690 768 794 q 747 579 768 632 q 693 475 727 526 q 611 375 658 425 q 511 275 565 326 l 351 120 l 716 120 q 710 58 716 90 q 695 0 704 26 l 83 0 q 77 16 80 11 l 386 322 "},"ü":{"x_min":141.671875,"x_max":802.84375,"ha":789,"o":"m 230 712 q 266 716 245 715 q 301 718 286 718 q 334 716 316 718 q 368 712 352 715 l 293 284 q 284 205 284 240 q 310 126 284 150 q 379 102 336 102 q 452 125 416 102 q 520 193 488 148 q 578 302 552 237 q 619 452 604 368 l 665 712 q 701 716 682 715 q 736 718 720 718 q 770 716 751 718 q 802 712 788 715 l 729 300 q 704 156 713 216 q 695 52 695 97 q 696 24 695 34 q 698 -1 697 13 q 666 -5 683 -4 q 633 -6 648 -6 q 602 -5 619 -6 q 570 -1 584 -4 q 565 62 565 16 q 568 112 565 88 q 576 158 572 136 q 537 97 562 129 q 479 41 512 66 q 404 0 445 16 q 318 -16 363 -16 q 188 27 234 -16 q 141 165 141 72 q 144 211 141 186 q 151 261 147 237 l 230 712 m 322 838 q 329 909 323 875 q 347 977 334 943 q 384 982 365 980 q 418 983 403 983 q 453 982 433 983 q 489 977 472 980 q 482 907 487 941 q 464 838 476 873 q 393 834 428 834 q 358 835 378 834 q 322 838 339 836 m 605 838 q 612 909 607 875 q 630 977 616 943 q 666 982 647 980 q 701 983 685 983 q 736 982 716 983 q 772 977 755 980 q 764 908 769 941 q 747 838 758 875 q 676 834 711 834 q 641 835 661 834 q 605 838 622 836 "},"¯":{"x_min":277.796875,"x_max":669.5,"ha":695,"o":"m 669 963 q 666 910 669 936 q 652 855 662 884 l 277 855 q 280 909 277 883 q 294 963 283 936 l 669 963 "},"Z":{"x_min":44.453125,"x_max":859.796875,"ha":736,"o":"m 44 11 l 627 873 l 223 873 q 245 998 223 938 l 854 998 l 859 984 l 277 123 l 700 123 q 694 58 700 88 q 677 0 688 27 l 51 0 l 44 11 "},"u":{"x_min":141.671875,"x_max":802.84375,"ha":789,"o":"m 230 712 q 266 716 245 715 q 301 718 286 718 q 334 716 316 718 q 368 712 352 715 l 293 284 q 284 205 284 240 q 310 126 284 150 q 379 102 336 102 q 452 125 416 102 q 520 193 488 148 q 578 302 552 237 q 619 452 604 368 l 665 712 q 701 716 682 715 q 736 718 720 718 q 770 716 751 718 q 802 712 788 715 l 729 300 q 704 156 713 216 q 695 52 695 97 q 696 24 695 34 q 698 -1 697 13 q 666 -5 683 -4 q 633 -6 648 -6 q 602 -5 619 -6 q 570 -1 584 -4 q 565 62 565 16 q 568 112 565 88 q 576 158 572 136 q 537 97 562 129 q 479 41 512 66 q 404 0 445 16 q 318 -16 363 -16 q 188 27 234 -16 q 141 165 141 72 q 144 211 141 186 q 151 261 147 237 l 230 712 "},"Ó":{"x_min":155.5625,"x_max":990.359375,"ha":974,"o":"m 484 -16 q 339 9 401 -16 q 236 84 277 36 q 175 200 195 131 q 155 350 155 268 q 188 597 155 477 q 286 810 222 718 q 445 959 351 902 q 661 1015 540 1015 q 807 987 744 1015 q 909 911 869 959 q 970 794 950 862 q 990 645 990 726 q 956 395 990 515 q 857 184 922 276 q 699 38 793 93 q 484 -16 605 -16 m 500 105 q 645 153 581 105 q 752 278 708 201 q 818 452 795 355 q 841 644 841 548 q 795 823 841 757 q 644 890 748 890 q 497 843 561 890 q 390 719 433 795 q 325 546 347 643 q 302 351 302 450 q 350 170 302 234 q 500 105 398 105 m 718 1232 q 757 1236 734 1234 q 804 1237 780 1237 q 855 1236 829 1237 q 897 1232 882 1234 l 696 1079 q 660 1075 682 1076 q 616 1075 639 1075 q 578 1076 597 1075 q 548 1080 559 1077 l 718 1232 "},"k":{"x_min":113.890625,"x_max":752.84375,"ha":700,"o":"m 362 369 l 508 551 q 572 640 547 600 q 604 712 597 680 q 640 716 623 715 q 676 718 657 718 q 715 716 695 718 q 752 712 734 715 q 729 650 747 680 q 679 577 711 620 q 593 475 636 526 q 506 372 551 423 l 676 0 q 604 -4 636 -4 q 529 0 568 -4 l 362 369 m 243 732 q 264 866 256 809 q 272 966 272 922 q 272 993 272 983 q 270 1018 272 1002 q 307 1022 286 1020 q 344 1023 329 1023 q 376 1022 359 1023 q 408 1018 393 1020 q 410 993 409 1005 q 411 966 411 980 q 406 904 411 941 q 395 827 402 868 l 250 0 q 214 -3 234 -2 q 179 -4 194 -4 q 145 -3 163 -4 q 113 0 127 -2 l 243 732 "},"Ù":{"x_min":175.015625,"x_max":976.46875,"ha":921,"o":"m 294 998 q 331 1002 312 1001 q 368 1004 350 1004 q 403 1002 386 1004 q 437 998 420 1001 l 337 431 q 320 269 320 336 q 356 147 320 184 q 479 111 391 111 q 581 131 538 111 q 652 191 623 151 q 701 292 682 231 q 734 431 720 352 l 833 998 q 870 1002 852 1001 q 907 1004 887 1004 q 942 1002 923 1004 q 976 998 961 1001 l 870 397 q 822 219 852 297 q 745 89 793 141 q 627 10 697 37 q 458 -16 556 -16 q 245 51 315 -16 q 175 262 175 119 q 179 330 175 294 q 190 406 183 366 l 294 998 m 452 1237 q 496 1241 469 1240 q 549 1243 523 1243 q 595 1241 573 1243 q 632 1237 617 1240 l 759 1080 q 728 1075 748 1077 q 689 1073 709 1073 q 649 1075 667 1073 q 619 1079 631 1076 l 452 1237 "},"€":{"x_min":101.390625,"x_max":944.515625,"ha":833,"o":"m 216 423 q 233 552 220 490 l 141 552 q 145 600 141 575 q 158 648 148 625 l 259 648 q 329 788 286 725 q 431 899 372 852 q 566 971 490 945 q 734 997 641 997 q 859 986 805 997 q 944 959 912 975 q 928 901 937 926 q 901 844 919 876 q 822 866 861 859 q 730 873 783 873 q 617 857 668 873 q 527 810 566 840 q 459 739 488 780 q 412 648 430 698 l 775 648 q 776 636 776 641 q 776 626 776 632 q 771 586 776 604 q 759 552 766 568 l 383 552 q 373 488 376 520 q 368 423 370 456 l 737 423 q 733 375 737 401 q 719 327 729 350 l 370 327 q 434 163 380 219 q 600 108 488 108 q 697 118 652 108 q 787 147 743 127 q 818 30 813 97 q 758 9 790 18 q 693 -5 726 0 q 630 -13 661 -11 q 575 -16 600 -16 q 311 75 398 -16 q 216 327 223 166 l 101 327 q 104 375 101 351 q 119 423 108 400 l 216 423 "},"¢":{"x_min":216.6875,"x_max":790.34375,"ha":833,"o":"m 437 -11 q 270 79 323 6 q 216 266 216 151 q 239 419 216 343 q 306 559 262 495 q 416 666 351 622 q 565 722 480 709 l 594 883 q 618 888 607 886 q 643 890 630 890 q 667 888 655 890 q 691 883 679 886 q 677 805 684 844 q 663 726 670 766 q 733 716 700 723 q 790 701 766 709 q 779 643 788 675 q 755 587 770 611 q 694 606 727 598 q 623 613 661 613 q 506 582 556 613 q 424 503 456 551 q 375 395 391 455 q 358 280 358 336 q 404 141 358 186 q 534 97 451 97 q 679 123 604 97 q 695 77 688 104 q 702 16 702 50 q 618 -6 666 1 q 533 -15 570 -13 l 508 -163 q 459 -169 486 -169 q 434 -168 445 -169 q 411 -163 422 -166 l 437 -11 "},"ß":{"x_min":-159.734375,"x_max":797.28125,"ha":803,"o":"m 237 726 q 276 867 251 809 q 340 961 301 925 q 433 1013 379 997 q 558 1030 487 1030 q 664 1015 619 1030 q 738 972 709 1000 q 782 910 768 945 q 797 833 797 875 q 768 720 797 766 q 706 636 740 673 q 643 566 672 600 q 615 493 615 533 q 641 432 615 458 q 697 377 666 406 q 755 309 729 348 q 782 211 782 270 q 762 117 782 159 q 708 45 743 75 q 625 0 673 15 q 518 -16 576 -16 q 421 -8 465 -16 q 344 15 377 0 q 363 68 351 40 q 390 123 375 95 q 452 103 418 111 q 519 95 486 95 q 608 121 569 95 q 647 200 647 147 q 620 271 647 244 q 563 324 594 298 q 505 382 531 350 q 479 470 479 415 q 508 566 479 525 q 572 645 537 607 q 636 724 607 683 q 665 818 665 765 q 629 892 665 866 q 540 918 594 918 q 475 908 502 918 q 427 875 447 898 q 395 812 408 851 q 372 716 381 773 l 240 -41 q 200 -181 225 -125 q 138 -272 175 -237 q 54 -323 101 -308 q -52 -338 6 -338 q -110 -334 -83 -338 q -159 -322 -137 -329 q -145 -263 -154 -288 q -123 -212 -137 -237 q -92 -221 -109 -218 q -56 -225 -75 -225 q 0 -218 -26 -225 q 45 -190 25 -211 q 79 -131 65 -169 q 105 -30 94 -93 l 237 726 "},"é":{"x_min":120.84375,"x_max":727.9375,"ha":692,"o":"m 258 283 q 305 143 262 190 q 438 95 348 95 q 544 109 494 95 q 634 137 594 122 q 652 87 647 116 q 658 29 658 58 q 607 11 637 19 q 545 -3 577 2 q 479 -13 512 -9 q 418 -16 445 -16 q 279 4 336 -16 q 188 64 223 26 q 136 154 152 102 q 120 268 120 206 q 149 435 120 352 q 231 583 177 518 q 359 688 284 648 q 525 729 433 729 q 670 684 616 729 q 723 563 723 638 q 693 457 723 502 q 611 380 663 412 q 486 327 558 348 q 330 294 415 306 l 258 283 m 345 400 q 463 428 416 412 q 537 463 509 444 q 576 502 565 481 q 587 548 587 523 q 565 600 587 580 q 501 620 543 620 q 419 600 456 620 q 352 547 381 580 q 301 472 322 515 q 269 386 280 430 l 345 400 m 551 1001 q 595 1005 573 1004 q 641 1007 618 1007 q 686 1005 665 1007 q 727 1001 707 1004 l 555 825 q 521 820 540 822 q 482 819 502 819 q 450 820 466 819 q 416 825 433 822 l 551 1001 "},"s":{"x_min":62.5,"x_max":637.546875,"ha":603,"o":"m 297 334 q 252 355 276 343 q 209 387 229 368 q 177 436 190 406 q 163 508 163 466 q 184 600 163 559 q 243 670 205 641 q 332 713 280 698 q 448 729 384 729 q 556 716 505 729 q 637 688 608 704 q 597 584 626 634 q 531 607 573 595 q 443 619 490 619 q 343 598 383 619 q 304 526 304 577 q 322 472 304 494 q 390 431 341 451 l 420 418 q 475 391 447 405 q 527 357 504 377 q 564 309 550 337 q 579 238 579 280 q 554 124 579 172 q 485 45 529 76 q 384 -1 441 13 q 259 -16 326 -16 q 150 -6 204 -16 q 62 18 97 2 q 72 76 65 48 q 95 129 80 104 q 180 104 131 113 q 270 95 229 95 q 336 102 305 95 q 388 121 366 108 q 424 156 411 134 q 437 212 437 179 q 412 277 437 255 q 341 316 387 298 l 297 334 "},"B":{"x_min":129.171875,"x_max":822.28125,"ha":804,"o":"m 304 998 q 397 1009 338 1004 q 508 1013 456 1013 q 636 1002 579 1013 q 735 963 694 990 q 799 897 776 937 q 822 798 822 857 q 805 702 822 747 q 761 624 788 658 q 697 567 733 590 q 625 534 662 544 q 748 466 700 522 q 797 325 797 411 q 761 168 797 233 q 665 61 726 102 q 522 2 604 20 q 350 -16 441 -16 q 239 -11 297 -16 q 129 0 181 -6 l 304 998 m 288 108 q 329 104 305 105 q 379 102 352 102 q 472 111 425 102 q 560 144 520 120 q 625 209 600 168 q 650 316 650 251 q 636 386 650 358 q 597 432 622 415 q 537 457 572 450 q 461 465 502 465 l 352 465 l 288 108 m 469 581 q 619 633 562 581 q 676 776 676 684 q 633 874 676 845 q 513 902 590 902 q 466 901 490 902 q 427 897 443 900 l 372 581 l 469 581 "},"?":{"x_min":202.796875,"x_max":713.953125,"ha":647,"o":"m 313 522 l 365 536 q 440 566 404 547 q 504 613 476 586 q 547 677 531 641 q 563 755 563 712 q 519 852 563 819 q 400 886 475 886 q 309 877 347 886 q 226 852 270 868 q 209 909 216 876 q 202 969 202 941 q 321 1000 266 993 q 430 1007 376 1007 q 553 989 500 1007 q 642 941 607 972 q 695 867 677 909 q 713 775 713 825 q 691 660 713 713 q 628 563 668 607 q 537 488 588 520 q 430 440 486 456 l 406 297 q 340 293 370 293 q 306 293 323 293 q 275 297 290 294 l 313 522 m 211 1 q 218 80 212 41 q 238 155 225 119 q 277 160 258 158 q 316 162 297 162 q 354 160 334 162 q 393 155 373 158 q 385 76 391 113 q 365 1 379 38 q 326 -2 345 -1 q 287 -4 306 -4 q 249 -2 268 -4 q 211 1 230 -1 "},"H":{"x_min":129.171875,"x_max":972.296875,"ha":925,"o":"m 304 998 q 338 1002 320 1001 q 376 1004 356 1004 q 411 1002 393 1004 q 447 998 430 1001 l 375 587 l 758 587 l 829 998 q 863 1002 845 1001 q 901 1004 882 1004 q 937 1002 918 1004 q 972 998 957 1001 l 797 0 q 761 -4 780 -2 q 723 -5 743 -5 q 686 -4 704 -5 q 654 0 669 -2 l 734 462 l 352 462 l 272 0 q 236 -4 255 -2 q 198 -5 216 -5 q 161 -4 179 -5 q 129 0 144 -2 l 304 998 "},"î":{"x_min":98.640625,"x_max":536.171875,"ha":396,"o":"m 250 602 l 163 602 q 167 657 163 630 q 181 712 170 683 l 404 712 l 279 0 q 243 -3 263 -2 q 208 -4 223 -4 q 176 -3 193 -4 q 144 0 159 -2 l 250 602 m 270 1001 q 310 1005 287 1004 q 352 1007 333 1007 q 391 1005 368 1007 q 433 1000 415 1004 l 536 825 q 507 820 523 822 q 473 819 491 819 q 437 820 457 819 q 401 825 418 822 l 344 934 l 247 825 q 209 820 230 822 q 170 819 187 819 q 131 820 151 819 q 98 825 112 822 l 270 1001 "},"c":{"x_min":122.234375,"x_max":697.28125,"ha":638,"o":"m 584 125 q 602 78 595 105 q 608 16 608 51 q 515 -8 568 0 q 419 -16 462 -16 q 194 58 266 -16 q 122 268 122 133 q 149 434 122 351 q 229 582 176 516 q 360 688 283 648 q 537 729 437 729 q 625 720 583 729 q 697 701 666 712 q 686 643 695 675 q 661 588 676 612 q 600 607 633 600 q 531 615 568 615 q 413 585 463 615 q 330 507 363 555 q 281 400 297 459 q 265 281 265 340 q 311 142 265 187 q 440 97 358 97 q 511 103 476 97 q 584 125 547 109 "},"¶":{"x_min":162.515625,"x_max":850.0625,"ha":799,"o":"m 427 434 q 326 454 375 438 q 241 498 277 469 q 184 572 205 527 q 162 679 162 616 q 196 835 162 772 q 293 936 230 898 q 442 991 355 975 q 636 1007 529 1007 l 462 -6 l 438 -6 q 395 -5 418 -6 q 352 1 373 -4 l 427 434 m 741 1007 q 806 1004 777 1007 q 850 997 834 1002 l 679 0 q 568 -8 641 -8 l 741 1007 "},"¥":{"x_min":129.171875,"x_max":929.234375,"ha":833,"o":"m 380 229 l 129 229 q 131 277 129 254 q 145 326 134 300 l 398 326 l 416 434 l 163 434 q 168 486 163 463 q 181 531 173 509 l 381 531 l 218 990 q 257 994 236 993 q 298 995 279 995 q 336 994 318 995 q 369 990 354 993 l 506 568 l 776 990 q 820 993 797 993 q 866 994 844 994 q 897 993 880 994 q 929 990 915 993 l 626 531 l 841 531 q 838 485 841 508 q 825 434 836 462 l 558 434 l 538 326 l 805 326 q 800 275 805 298 q 788 229 795 251 l 522 229 l 481 0 q 409 -4 445 -4 q 340 0 370 -4 l 380 229 "},"(":{"x_min":169.453125,"x_max":605.609375,"ha":460,"o":"m 238 -230 q 190 -59 211 -165 q 169 177 169 47 q 181 354 169 263 q 215 532 194 444 q 266 704 237 620 q 329 858 295 787 q 397 985 362 929 q 468 1076 433 1041 q 495 1080 479 1079 q 533 1082 511 1082 q 571 1080 552 1082 q 605 1076 590 1079 q 509 923 561 1013 q 412 718 456 833 q 338 468 368 604 q 309 177 309 331 q 316 34 309 100 q 334 -82 323 -30 q 355 -172 344 -134 q 375 -230 366 -209 q 338 -234 356 -233 q 300 -236 319 -236 q 265 -234 281 -236 q 238 -230 250 -233 "},"U":{"x_min":175.015625,"x_max":976.46875,"ha":921,"o":"m 294 998 q 331 1002 312 1001 q 368 1004 350 1004 q 403 1002 386 1004 q 437 998 420 1001 l 337 431 q 320 269 320 336 q 356 147 320 184 q 479 111 391 111 q 581 131 538 111 q 652 191 623 151 q 701 292 682 231 q 734 431 720 352 l 833 998 q 870 1002 852 1001 q 907 1004 887 1004 q 942 1002 923 1004 q 976 998 961 1001 l 870 397 q 822 219 852 297 q 745 89 793 141 q 627 10 697 37 q 458 -16 556 -16 q 245 51 315 -16 q 175 262 175 119 q 179 330 175 294 q 190 406 183 366 l 294 998 "},"◊":{"x_min":130.5625,"x_max":780.625,"ha":738,"o":"m 644 506 l 523 879 l 269 498 l 388 125 l 644 506 m 130 502 l 472 1004 q 508 1008 490 1007 q 541 1009 526 1009 q 575 1008 556 1009 q 608 1004 593 1007 l 780 502 l 438 0 q 402 -4 422 -2 q 366 -5 381 -5 q 334 -4 351 -5 q 302 0 318 -2 l 130 502 "},"Ñ":{"x_min":127.78125,"x_max":976.46875,"ha":929,"o":"m 302 998 q 336 1002 318 1001 q 370 1002 355 1002 q 433 998 405 1002 l 713 245 l 844 998 q 871 1001 858 1000 q 898 1002 884 1002 l 932 1002 l 976 998 l 801 0 q 768 -3 786 -2 q 734 -4 751 -4 q 703 -3 719 -4 q 672 0 687 -2 l 390 748 l 261 0 q 206 -4 233 -4 l 172 -4 l 127 0 l 302 998 m 431 1177 q 494 1226 457 1205 q 575 1247 531 1247 q 628 1239 604 1247 q 674 1222 651 1232 q 719 1204 696 1212 q 770 1197 742 1197 q 812 1204 793 1197 q 858 1236 831 1212 q 883 1200 870 1222 q 899 1158 896 1177 q 834 1112 871 1133 q 753 1091 797 1091 q 700 1099 724 1091 q 654 1116 676 1107 q 609 1132 632 1125 q 561 1140 586 1140 q 516 1132 535 1140 q 471 1102 497 1123 q 446 1137 458 1116 q 431 1177 433 1158 "},"F":{"x_min":127.78125,"x_max":807.015625,"ha":689,"o":"m 302 998 l 807 998 q 800 934 802 962 q 784 873 797 905 l 423 873 l 372 580 l 675 580 q 652 455 672 515 l 350 455 l 270 0 q 198 -4 234 -4 q 161 -3 179 -4 q 127 0 143 -2 l 302 998 "},"­":{"x_min":134.734375,"x_max":506.984375,"ha":499,"o":"m 506 463 q 500 400 506 434 q 484 336 494 365 l 134 336 q 156 463 137 401 l 506 463 "},":":{"x_min":84.734375,"x_max":355.296875,"ha":326,"o":"m 174 514 q 182 591 174 552 q 201 668 190 629 q 240 672 220 670 q 278 673 259 673 q 317 672 298 673 q 355 668 337 670 q 348 591 355 627 q 330 514 341 554 q 289 509 308 511 q 251 508 270 508 q 212 509 231 508 q 174 514 194 511 m 84 0 q 92 77 84 38 q 111 154 100 115 q 150 158 130 156 q 188 159 169 159 q 227 158 208 159 q 265 154 247 156 q 258 77 265 113 q 240 0 251 40 q 199 -4 218 -2 q 161 -5 180 -5 q 122 -4 141 -5 q 84 0 104 -2 "},"Û":{"x_min":175.015625,"x_max":976.46875,"ha":921,"o":"m 294 998 q 331 1002 312 1001 q 368 1004 350 1004 q 403 1002 386 1004 q 437 998 420 1001 l 337 431 q 320 269 320 336 q 356 147 320 184 q 479 111 391 111 q 581 131 538 111 q 652 191 623 151 q 701 292 682 231 q 734 431 720 352 l 833 998 q 870 1002 852 1001 q 907 1004 887 1004 q 942 1002 923 1004 q 976 998 961 1001 l 870 397 q 822 219 852 297 q 745 89 793 141 q 627 10 697 37 q 458 -16 556 -16 q 245 51 315 -16 q 175 262 175 119 q 179 330 175 294 q 190 406 183 366 l 294 998 m 603 1234 q 644 1238 621 1237 q 686 1240 667 1240 q 720 1238 700 1240 q 758 1234 740 1237 l 872 1082 q 840 1077 857 1079 q 805 1076 824 1076 q 771 1077 790 1076 q 735 1083 753 1079 l 672 1166 l 576 1082 q 537 1077 558 1079 q 498 1076 515 1076 q 460 1077 479 1076 q 426 1082 442 1079 l 603 1234 "},"*":{"x_min":176.40625,"x_max":744.5,"ha":661,"o":"m 459 998 q 502 1002 480 1002 q 545 998 522 1002 l 525 818 q 496 814 509 815 q 469 813 483 813 q 442 814 455 813 q 416 818 429 815 l 459 998 m 176 763 q 219 845 190 805 l 384 800 q 362 746 375 772 q 334 697 350 720 l 176 763 m 340 668 q 379 641 359 657 q 416 605 400 625 l 276 465 q 243 488 258 476 q 216 516 227 500 l 340 668 m 550 800 l 732 845 q 744 775 744 812 l 744 763 l 563 697 q 553 741 556 718 q 550 788 550 765 l 550 800 m 448 605 q 547 668 497 644 l 618 516 q 580 488 600 500 q 538 465 561 476 l 448 605 "},"°":{"x_min":159.734375,"x_max":565.328125,"ha":514,"o":"m 159 805 q 175 885 159 848 q 218 949 191 922 q 283 992 245 976 q 362 1008 320 1008 q 441 992 404 1008 q 505 949 477 976 q 549 885 533 922 q 565 805 565 848 q 549 727 565 763 q 505 663 533 690 q 441 620 477 636 q 362 604 404 604 q 283 620 320 604 q 218 663 245 636 q 175 727 191 690 q 159 805 159 763 m 362 697 q 436 727 406 697 q 466 805 466 758 q 436 884 466 852 q 362 915 406 915 q 288 884 318 915 q 258 805 258 852 q 288 727 258 758 q 362 697 318 697 "},"V":{"x_min":211.125,"x_max":977.859375,"ha":847,"o":"m 211 998 q 248 1002 227 1001 q 290 1004 269 1004 q 327 1002 308 1004 q 362 998 345 1001 l 459 161 l 826 998 q 863 1002 843 1001 q 902 1004 883 1004 q 942 1002 922 1004 q 977 998 962 1001 l 519 0 q 475 -4 500 -2 q 430 -5 450 -5 q 388 -4 409 -5 q 348 0 366 -2 l 211 998 "},"å":{"x_min":113.890625,"x_max":780.625,"ha":770,"o":"m 632 607 q 597 612 615 611 q 556 613 579 613 q 432 581 487 613 q 338 496 377 550 q 277 375 298 443 q 256 237 256 308 q 280 134 256 170 q 351 97 304 97 q 434 125 394 97 q 508 202 475 152 q 566 317 541 251 q 604 458 590 383 l 632 607 m 711 302 q 686 159 695 219 q 677 55 677 100 q 678 27 677 37 q 682 1 679 16 q 648 -2 666 -1 q 615 -4 630 -4 q 584 -2 601 -4 q 552 1 568 -1 q 548 32 550 16 q 547 72 547 48 q 550 113 547 87 q 558 161 554 140 q 518 99 543 130 q 460 42 493 68 q 386 0 427 16 q 298 -16 345 -16 q 160 43 206 -16 q 113 208 113 104 q 144 400 113 306 q 234 567 175 494 q 383 684 294 640 q 590 729 472 729 q 691 721 640 729 q 780 700 741 713 l 711 302 m 462 945 q 473 1009 462 979 q 505 1061 485 1038 q 555 1098 526 1084 q 621 1112 585 1112 q 719 1075 683 1112 q 755 975 755 1038 q 744 911 755 941 q 710 860 732 882 q 660 826 689 838 q 596 813 630 813 q 498 850 533 813 q 462 945 462 886 m 603 884 q 653 908 635 884 q 672 972 672 932 q 659 1023 672 1004 q 615 1041 646 1041 q 562 1015 580 1041 q 544 954 544 988 q 558 903 544 922 q 603 884 572 884 "}," ":{"x_min":0,"x_max":0,"ha":125},"0":{"x_min":129.171875,"x_max":857.015625,"ha":833,"o":"m 418 -16 q 280 11 336 -16 q 191 84 225 38 q 143 186 158 129 q 129 304 129 244 q 157 525 129 416 q 241 718 186 633 q 379 857 297 804 q 568 909 461 909 q 705 882 650 909 q 794 808 761 854 q 842 704 827 762 q 857 587 857 647 q 828 366 857 475 q 744 172 800 258 q 606 35 688 87 q 418 -16 525 -16 m 430 104 q 547 145 495 104 q 636 255 600 187 q 693 411 673 323 q 712 591 712 500 q 704 666 712 630 q 679 728 697 701 q 631 771 661 755 q 555 787 601 787 q 436 746 488 787 q 348 637 384 705 q 293 481 312 569 q 273 300 273 393 q 281 227 273 262 q 306 164 288 191 q 354 120 325 137 q 430 104 384 104 "},"¾":{"x_min":173.90625,"x_max":1328.109375,"ha":1458,"o":"m 1111 983 q 1149 987 1128 986 q 1187 988 1169 988 q 1225 987 1205 988 q 1260 983 1244 986 l 490 1 q 454 -2 471 -1 q 421 -4 437 -4 q 381 -2 403 -4 q 343 1 360 -1 l 1111 983 m 855 127 l 1151 577 q 1205 563 1179 573 q 1248 541 1230 553 l 1023 202 l 1160 202 l 1180 316 q 1205 319 1193 319 q 1232 320 1216 320 q 1283 316 1260 320 l 1264 202 l 1328 202 q 1324 155 1328 181 q 1312 109 1321 130 l 1248 109 l 1229 0 q 1207 -2 1218 -1 q 1182 -3 1196 -3 q 1154 -2 1166 -3 q 1126 1 1141 -1 l 1144 109 l 862 109 l 855 127 m 312 701 l 472 886 l 272 886 q 275 933 272 909 q 287 982 279 957 l 633 982 l 640 961 l 472 761 q 567 712 537 752 q 597 623 597 672 q 577 531 597 572 q 523 464 557 491 q 443 422 489 437 q 347 408 397 408 q 248 417 291 408 q 173 440 204 426 q 214 529 182 486 q 280 510 248 518 q 344 502 311 502 q 393 508 369 502 q 435 526 416 513 q 465 559 454 538 q 476 609 476 580 q 451 670 476 650 q 382 690 425 690 q 355 688 371 690 q 325 684 340 687 l 312 701 "},"@":{"x_min":136.125,"x_max":1390.390625,"ha":1372,"o":"m 952 197 q 986 182 966 186 q 1026 179 1007 179 q 1129 213 1084 179 q 1204 300 1173 247 q 1252 418 1236 354 q 1268 545 1268 483 q 1163 813 1268 722 q 870 905 1059 905 q 613 854 726 905 q 424 719 501 804 q 306 526 347 634 q 266 302 266 418 q 297 116 266 194 q 383 -10 329 38 q 511 -83 437 -59 q 669 -106 584 -106 q 796 -96 736 -106 q 905 -68 857 -86 q 921 -111 913 -87 q 936 -165 929 -136 q 811 -200 887 -188 q 645 -212 736 -212 q 447 -181 540 -212 q 286 -88 355 -151 q 176 70 216 -25 q 136 297 136 166 q 180 549 136 422 q 316 779 225 676 q 549 948 408 883 q 884 1013 690 1013 q 1082 985 990 1013 q 1243 898 1175 957 q 1350 752 1311 840 q 1390 545 1390 663 q 1364 376 1390 459 q 1290 226 1339 293 q 1172 118 1241 159 q 1015 77 1102 77 q 928 88 966 77 q 862 120 890 98 q 772 83 822 97 q 661 69 722 69 q 506 128 565 69 q 447 290 447 187 q 479 464 447 384 q 565 602 511 544 q 692 692 619 659 q 847 725 765 725 q 953 716 902 725 q 1052 693 1004 708 l 952 197 m 904 605 q 870 611 886 609 q 838 613 855 613 q 736 591 783 613 q 656 527 690 568 q 603 433 622 487 q 584 316 584 379 q 616 212 584 245 q 709 179 647 179 q 768 184 741 179 q 826 205 794 190 l 904 605 "},"ö":{"x_min":123.625,"x_max":780.625,"ha":774,"o":"m 383 -16 q 188 54 254 -16 q 123 256 123 126 q 147 417 123 333 q 220 570 170 501 q 343 684 269 638 q 519 729 418 729 q 715 656 650 729 q 780 454 780 584 q 757 293 780 376 q 684 140 733 209 q 561 27 636 72 q 383 -16 486 -16 m 397 93 q 509 128 462 93 q 584 218 555 163 q 627 335 613 272 q 641 454 641 398 q 606 575 641 533 q 505 616 570 616 q 394 580 440 616 q 319 490 348 544 q 277 372 290 436 q 263 255 263 309 q 297 134 263 176 q 397 93 331 93 m 322 838 q 329 909 323 875 q 347 977 334 943 q 384 982 365 980 q 418 983 403 983 q 453 982 433 983 q 489 977 472 980 q 482 907 487 941 q 464 838 476 873 q 393 834 428 834 q 358 835 378 834 q 322 838 339 836 m 605 838 q 612 909 607 875 q 630 977 616 943 q 666 982 647 980 q 701 983 685 983 q 736 982 716 983 q 772 977 755 980 q 764 908 769 941 q 747 838 758 875 q 676 834 711 834 q 641 835 661 834 q 605 838 622 836 "},"i":{"x_min":144.453125,"x_max":431.984375,"ha":396,"o":"m 250 602 l 163 602 q 167 657 163 630 q 181 712 170 683 l 404 712 l 279 0 q 243 -3 263 -2 q 208 -4 223 -4 q 176 -3 193 -4 q 144 0 159 -2 l 250 602 m 248 859 q 255 936 248 900 q 273 1009 262 972 q 315 1013 293 1012 q 354 1015 337 1015 q 392 1013 370 1015 q 431 1009 413 1012 q 423 932 430 969 q 405 859 416 895 q 363 856 386 857 q 325 855 341 855 q 287 856 309 855 q 248 859 265 857 "},"Õ":{"x_min":155.5625,"x_max":990.359375,"ha":974,"o":"m 484 -16 q 339 9 401 -16 q 236 84 277 36 q 175 200 195 131 q 155 350 155 268 q 188 597 155 477 q 286 810 222 718 q 445 959 351 902 q 661 1015 540 1015 q 807 987 744 1015 q 909 911 869 959 q 970 794 950 862 q 990 645 990 726 q 956 395 990 515 q 857 184 922 276 q 699 38 793 93 q 484 -16 605 -16 m 500 105 q 645 153 581 105 q 752 278 708 201 q 818 452 795 355 q 841 644 841 548 q 795 823 841 757 q 644 890 748 890 q 497 843 561 890 q 390 719 433 795 q 325 546 347 643 q 302 351 302 450 q 350 170 302 234 q 500 105 398 105 m 461 1177 q 524 1226 487 1205 q 605 1247 561 1247 q 658 1239 634 1247 q 704 1222 681 1232 q 749 1204 726 1212 q 800 1197 772 1197 q 842 1204 823 1197 q 888 1236 861 1212 q 913 1200 900 1222 q 929 1158 926 1177 q 864 1112 901 1133 q 783 1091 827 1091 q 730 1099 754 1091 q 684 1116 706 1107 q 639 1132 662 1125 q 591 1140 616 1140 q 546 1132 565 1140 q 501 1102 527 1123 q 476 1137 488 1116 q 461 1177 463 1158 "},"þ":{"x_min":51.390625,"x_max":790.34375,"ha":786,"o":"m 265 106 q 302 100 280 102 q 345 98 325 98 q 461 122 408 98 q 555 192 515 147 q 618 300 595 237 q 641 440 641 362 q 611 561 641 513 q 519 608 581 608 q 451 593 484 608 q 389 545 418 579 q 338 459 361 512 q 302 327 315 405 l 265 106 m 188 -327 q 152 -331 172 -330 q 119 -331 133 -331 q 85 -331 104 -331 q 51 -327 66 -330 q 143 193 97 -65 q 236 715 188 452 q 260 858 251 798 q 269 962 269 918 q 268 991 269 980 q 266 1016 268 1002 q 299 1020 281 1019 q 331 1022 316 1022 q 366 1021 345 1022 q 402 1018 387 1020 q 406 993 405 1007 q 408 955 408 979 q 404 903 408 943 q 391 815 400 863 l 351 594 q 443 690 388 651 q 583 729 498 729 q 734 661 679 729 q 790 472 790 594 q 760 285 790 373 q 670 129 730 197 q 522 22 611 62 q 315 -16 433 -16 q 276 -14 294 -16 q 243 -9 258 -12 l 188 -327 "},"]":{"x_min":4.171875,"x_max":522.265625,"ha":457,"o":"m 179 -119 l 366 943 l 211 943 q 230 1055 211 997 l 522 1055 l 295 -233 l 4 -233 q 9 -175 4 -205 q 23 -119 13 -145 l 179 -119 "},"m":{"x_min":113.890625,"x_max":1155.640625,"ha":1171,"o":"m 186 412 q 210 555 201 495 q 219 659 219 615 q 219 688 219 677 q 216 713 219 698 q 250 718 231 716 q 283 719 268 719 q 313 718 297 719 q 345 713 330 716 q 350 689 348 702 q 351 652 351 676 q 350 620 351 636 q 345 588 348 605 q 444 688 381 647 q 584 729 506 729 q 699 692 659 729 q 745 584 738 655 q 851 688 787 648 q 991 729 915 729 q 1155 548 1155 729 q 1152 502 1155 527 q 1145 451 1150 476 l 1066 0 q 1032 -4 1051 -2 q 997 -5 1012 -5 q 963 -4 982 -5 q 930 0 944 -2 l 1005 427 q 1011 471 1009 450 q 1013 508 1013 493 q 993 585 1013 561 q 926 609 972 609 q 866 595 897 609 q 806 548 834 581 q 754 461 777 515 q 716 326 730 406 l 659 0 q 623 -4 643 -2 q 588 -5 604 -5 q 554 -4 573 -5 q 522 0 536 -2 l 597 427 q 603 471 601 450 q 605 508 605 493 q 584 585 605 561 q 518 609 563 609 q 457 595 488 609 q 397 547 426 581 q 345 454 369 512 q 305 309 320 397 l 250 0 q 213 -4 233 -2 q 179 -5 194 -5 q 145 -4 163 -5 q 113 0 127 -2 l 186 412 "},"8":{"x_min":127.78125,"x_max":841.734375,"ha":833,"o":"m 379 530 q 337 559 358 543 q 299 600 316 576 q 270 655 281 625 q 259 726 259 686 q 285 832 259 783 q 355 918 311 882 q 459 977 400 955 q 586 998 519 998 q 684 986 637 998 q 765 947 730 973 q 820 882 800 920 q 841 790 841 843 q 825 704 841 744 q 782 631 809 665 q 719 572 755 598 q 641 527 683 547 q 700 490 672 511 q 749 441 727 469 q 783 377 770 412 q 795 297 795 341 q 765 165 795 223 q 683 66 734 106 q 563 4 632 26 q 422 -16 495 -16 q 307 -4 361 -16 q 213 35 254 8 q 150 106 173 62 q 127 213 127 151 q 147 317 127 269 q 202 404 168 365 q 281 475 236 444 q 379 530 327 506 m 491 472 q 406 433 445 456 q 337 379 366 409 q 291 312 308 348 q 275 234 275 276 q 318 131 275 163 q 433 100 362 100 q 523 114 483 100 q 591 154 563 129 q 634 215 619 180 q 650 291 650 251 q 604 400 650 356 q 491 472 558 444 m 529 583 q 657 659 611 612 q 704 775 704 705 q 666 861 704 833 q 576 888 627 888 q 500 875 533 888 q 443 840 466 862 q 409 788 420 818 q 397 726 397 759 q 411 670 397 694 q 445 629 425 645 q 488 601 465 612 q 529 583 511 590 "},"R":{"x_min":127.78125,"x_max":832.015625,"ha":799,"o":"m 304 1000 q 405 1011 356 1008 q 501 1015 454 1015 q 623 1002 563 1015 q 729 961 683 990 q 804 884 776 932 q 832 763 832 836 q 808 634 832 690 q 749 538 784 579 q 671 469 713 497 q 593 425 629 441 l 775 0 q 694 -4 733 -4 q 619 0 654 -4 l 426 465 l 440 469 q 470 479 448 470 q 518 502 491 487 q 575 539 545 518 q 628 591 604 561 q 668 657 652 620 q 683 740 683 694 q 636 859 683 823 q 505 895 588 895 q 466 894 483 895 q 426 890 448 893 l 269 0 q 234 -2 252 -1 q 197 -4 215 -4 q 161 -3 180 -4 q 127 0 143 -2 l 304 1000 "},"á":{"x_min":113.890625,"x_max":794.9375,"ha":770,"o":"m 632 607 q 597 612 615 611 q 556 613 579 613 q 432 581 487 613 q 338 496 377 550 q 277 375 298 443 q 256 237 256 308 q 280 134 256 170 q 351 97 304 97 q 434 125 394 97 q 508 202 475 152 q 566 317 541 251 q 604 458 590 383 l 632 607 m 711 302 q 686 159 695 219 q 677 55 677 100 q 678 27 677 37 q 682 1 679 16 q 648 -2 666 -1 q 615 -4 630 -4 q 584 -2 601 -4 q 552 1 568 -1 q 548 32 550 16 q 547 72 547 48 q 550 113 547 87 q 558 161 554 140 q 518 99 543 130 q 460 42 493 68 q 386 0 427 16 q 298 -16 345 -16 q 160 43 206 -16 q 113 208 113 104 q 144 400 113 306 q 234 567 175 494 q 383 684 294 640 q 590 729 472 729 q 691 721 640 729 q 780 700 741 713 l 711 302 m 618 1001 q 662 1005 640 1004 q 708 1007 685 1007 q 753 1005 732 1007 q 794 1001 774 1004 l 622 825 q 588 820 607 822 q 549 819 569 819 q 517 820 533 819 q 483 825 500 822 l 618 1001 "},"×":{"x_min":215.296875,"x_max":794.515625,"ha":833,"o":"m 413 495 l 279 659 q 327 706 301 683 q 383 748 352 729 l 518 583 l 713 751 q 759 705 737 732 q 794 652 780 679 l 598 484 l 732 323 q 684 276 711 298 q 629 237 657 254 l 495 398 l 295 229 q 250 273 270 247 q 215 327 230 300 l 413 495 "},"o":{"x_min":123.625,"x_max":780.625,"ha":774,"o":"m 383 -16 q 188 54 254 -16 q 123 256 123 126 q 147 417 123 333 q 220 570 170 501 q 343 684 269 638 q 519 729 418 729 q 715 656 650 729 q 780 454 780 584 q 757 293 780 376 q 684 140 733 209 q 561 27 636 72 q 383 -16 486 -16 m 397 93 q 509 128 462 93 q 584 218 555 163 q 627 335 613 272 q 641 454 641 398 q 606 575 641 533 q 505 616 570 616 q 394 580 440 616 q 319 490 348 544 q 277 372 290 436 q 263 255 263 309 q 297 134 263 176 q 397 93 331 93 "},"5":{"x_min":90.28125,"x_max":802.84375,"ha":833,"o":"m 241 404 l 347 895 l 802 895 q 796 832 802 865 q 782 772 790 800 l 452 772 l 400 520 q 448 527 426 526 q 486 529 470 529 q 595 510 548 529 q 675 459 643 491 q 725 384 708 427 q 741 288 741 340 q 707 122 741 194 q 613 0 672 50 q 476 -75 554 -50 q 312 -101 398 -101 q 190 -89 245 -101 q 90 -58 134 -77 q 108 2 97 -29 q 134 59 119 33 q 217 31 175 44 q 322 19 259 19 q 425 34 376 19 q 510 81 473 50 q 568 159 547 112 q 590 269 590 206 q 547 377 590 338 q 418 415 505 415 q 326 408 365 415 q 255 388 287 401 l 241 404 "},"õ":{"x_min":123.625,"x_max":780.625,"ha":774,"o":"m 383 -16 q 188 54 254 -16 q 123 256 123 126 q 147 417 123 333 q 220 570 170 501 q 343 684 269 638 q 519 729 418 729 q 715 656 650 729 q 780 454 780 584 q 757 293 780 376 q 684 140 733 209 q 561 27 636 72 q 383 -16 486 -16 m 397 93 q 509 128 462 93 q 584 218 555 163 q 627 335 613 272 q 641 454 641 398 q 606 575 641 533 q 505 616 570 616 q 394 580 440 616 q 319 490 348 544 q 277 372 290 436 q 263 255 263 309 q 297 134 263 176 q 397 93 331 93 m 298 916 q 361 965 324 944 q 442 986 398 986 q 495 978 471 986 q 541 961 519 970 q 586 945 563 952 q 637 937 609 937 q 680 944 660 937 q 727 975 699 951 q 751 939 738 961 q 766 897 763 918 q 702 851 739 872 q 620 830 664 830 q 567 838 591 830 q 521 855 544 845 q 476 872 499 865 q 428 880 453 880 q 383 871 402 880 q 338 841 364 862 q 313 876 325 855 q 298 916 300 897 "},"7":{"x_min":190.296875,"x_max":890.34375,"ha":833,"o":"m 670 772 l 229 772 q 234 836 229 801 q 250 895 240 872 l 884 895 l 890 884 l 313 -104 q 243 -79 270 -93 q 190 -43 215 -66 l 670 772 "},"K":{"x_min":129.171875,"x_max":944.515625,"ha":810,"o":"m 304 998 q 376 1002 338 1002 q 445 998 412 1002 l 270 0 q 198 -4 234 -4 q 129 0 159 -4 l 304 998 m 402 506 l 784 998 q 824 1002 805 1001 q 859 1002 843 1002 q 901 1002 877 1002 q 944 998 925 1001 l 558 508 l 797 0 q 718 -4 752 -4 q 643 0 684 -4 l 402 506 "},",":{"x_min":15.28125,"x_max":284.75,"ha":328,"o":"m 147 151 q 181 156 163 155 q 215 158 198 158 q 251 156 233 158 q 284 151 269 155 l 148 -155 q 113 -159 130 -158 q 80 -161 95 -161 q 15 -155 43 -161 l 147 151 "},"d":{"x_min":115.28125,"x_max":822.28125,"ha":767,"o":"m 633 607 q 598 612 616 611 q 558 613 580 613 q 434 581 488 613 q 339 496 379 550 q 279 375 300 443 q 258 237 258 308 q 281 134 258 170 q 352 97 305 97 q 436 125 395 97 q 509 202 476 152 q 568 317 543 251 q 607 458 593 383 l 633 607 m 713 302 q 690 159 698 219 q 682 55 682 100 q 682 27 682 37 q 684 1 682 16 q 652 -2 669 -1 q 619 -4 634 -4 q 587 -2 604 -4 q 556 1 570 -1 q 552 25 554 12 q 550 62 550 38 q 553 109 550 79 q 563 163 556 138 q 522 101 547 133 q 463 43 497 69 q 389 0 430 16 q 301 -16 348 -16 q 162 43 209 -16 q 115 208 115 104 q 145 400 115 306 q 236 567 176 494 q 385 684 295 640 q 591 729 475 729 q 623 727 607 729 q 651 725 640 726 q 675 863 666 805 q 683 966 683 922 q 683 994 683 984 q 682 1018 683 1004 q 718 1022 697 1020 q 755 1023 740 1023 q 786 1022 769 1023 q 818 1019 804 1022 q 822 968 822 991 q 816 886 822 936 q 801 790 809 836 l 713 302 "},"¨":{"x_min":269.46875,"x_max":719.5,"ha":695,"o":"m 269 838 q 276 909 270 875 q 294 977 281 943 q 331 982 312 980 q 365 983 350 983 q 400 982 380 983 q 436 977 419 980 q 429 907 434 941 q 411 838 423 873 q 340 834 375 834 q 305 835 325 834 q 269 838 286 836 m 552 838 q 559 909 554 875 q 577 977 563 943 q 613 982 594 980 q 648 983 632 983 q 683 982 663 983 q 719 977 702 980 q 711 908 716 941 q 694 838 705 875 q 623 834 658 834 q 588 835 608 834 q 552 838 569 836 "},"Ô":{"x_min":155.5625,"x_max":990.359375,"ha":974,"o":"m 484 -16 q 339 9 401 -16 q 236 84 277 36 q 175 200 195 131 q 155 350 155 268 q 188 597 155 477 q 286 810 222 718 q 445 959 351 902 q 661 1015 540 1015 q 807 987 744 1015 q 909 911 869 959 q 970 794 950 862 q 990 645 990 726 q 956 395 990 515 q 857 184 922 276 q 699 38 793 93 q 484 -16 605 -16 m 500 105 q 645 153 581 105 q 752 278 708 201 q 818 452 795 355 q 841 644 841 548 q 795 823 841 757 q 644 890 748 890 q 497 843 561 890 q 390 719 433 795 q 325 546 347 643 q 302 351 302 450 q 350 170 302 234 q 500 105 398 105 m 621 1234 q 662 1238 639 1237 q 704 1240 685 1240 q 738 1238 718 1240 q 776 1234 758 1237 l 890 1082 q 858 1077 875 1079 q 823 1076 842 1076 q 789 1077 808 1076 q 753 1083 771 1079 l 690 1166 l 594 1082 q 555 1077 576 1079 q 516 1076 533 1076 q 478 1077 497 1076 q 444 1082 460 1079 l 621 1234 "},"E":{"x_min":127.78125,"x_max":832.015625,"ha":728,"o":"m 302 998 l 832 998 q 809 873 832 936 l 423 873 l 373 588 l 682 588 q 659 463 682 525 l 351 463 q 321 293 336 377 q 291 123 306 209 l 688 123 q 682 61 684 87 q 666 0 679 34 l 127 0 l 302 998 "},"Y":{"x_min":184.734375,"x_max":908.40625,"ha":763,"o":"m 375 363 l 184 998 q 229 1002 204 1001 q 279 1002 255 1002 q 336 998 308 1002 l 469 508 l 755 998 q 834 1002 793 1002 q 872 1002 852 1002 q 908 998 893 1001 l 515 359 l 452 0 q 379 -4 415 -4 q 309 0 340 -4 l 375 363 "},"\"":{"x_min":169.453125,"x_max":632.078125,"ha":540,"o":"m 500 997 q 533 1001 515 1000 q 568 1002 551 1002 q 632 997 605 1002 l 566 616 q 500 612 533 612 q 433 616 462 612 l 500 997 m 236 997 q 269 1001 251 1000 q 304 1002 287 1002 q 368 997 341 1002 l 302 616 q 236 612 269 612 q 169 616 198 612 l 236 997 "},"ê":{"x_min":120.84375,"x_max":725.171875,"ha":692,"o":"m 258 283 q 305 143 262 190 q 438 95 348 95 q 544 109 494 95 q 634 137 594 122 q 652 87 647 116 q 658 29 658 58 q 607 11 637 19 q 545 -3 577 2 q 479 -13 512 -9 q 418 -16 445 -16 q 279 4 336 -16 q 188 64 223 26 q 136 154 152 102 q 120 268 120 206 q 149 435 120 352 q 231 583 177 518 q 359 688 284 648 q 525 729 433 729 q 670 684 616 729 q 723 563 723 638 q 693 457 723 502 q 611 380 663 412 q 486 327 558 348 q 330 294 415 306 l 258 283 m 345 400 q 463 428 416 412 q 537 463 509 444 q 576 502 565 481 q 587 548 587 523 q 565 600 587 580 q 501 620 543 620 q 419 600 456 620 q 352 547 381 580 q 301 472 322 515 q 269 386 280 430 l 345 400 m 459 1001 q 499 1005 476 1004 q 541 1007 522 1007 q 580 1005 557 1007 q 622 1000 604 1004 l 725 825 q 696 820 712 822 q 662 819 680 819 q 626 820 646 819 q 590 825 607 822 l 533 934 l 436 825 q 398 820 419 822 q 359 819 376 819 q 320 820 340 819 q 287 825 301 822 l 459 1001 "},"Ï":{"x_min":129.171875,"x_max":634.84375,"ha":400,"o":"m 304 998 q 340 1002 322 1001 q 376 1004 358 1004 q 413 1002 395 1004 q 447 998 430 1001 l 272 0 q 235 -4 252 -2 q 198 -5 218 -5 q 161 -4 179 -5 q 129 0 144 -2 l 304 998 m 168 1080 q 191 1220 168 1152 q 229 1225 211 1223 q 265 1226 248 1226 q 302 1225 283 1226 q 337 1220 322 1223 q 313 1080 337 1148 q 275 1076 294 1077 q 238 1075 257 1075 q 203 1076 222 1075 q 168 1080 184 1077 m 465 1080 q 489 1220 465 1150 q 526 1225 507 1223 q 562 1226 545 1226 q 599 1225 580 1226 q 634 1220 618 1223 q 611 1080 632 1150 q 573 1076 591 1077 q 536 1075 554 1075 q 500 1076 519 1075 q 465 1080 480 1077 "},"Â":{"x_min":48.609375,"x_max":816.609375,"ha":832,"o":"m 502 998 q 546 1002 520 1001 q 591 1002 572 1002 q 634 1002 612 1002 q 672 998 655 1001 l 808 0 q 727 -4 768 -4 q 659 0 694 -4 l 633 234 l 297 234 l 195 0 q 120 -4 162 -4 q 82 -3 101 -4 q 48 0 63 -2 l 502 998 m 619 356 l 562 838 l 351 356 l 619 356 m 547 1234 q 588 1238 565 1237 q 630 1240 611 1240 q 664 1238 644 1240 q 702 1234 684 1237 l 816 1082 q 784 1077 801 1079 q 749 1076 768 1076 q 715 1077 734 1076 q 679 1083 697 1079 l 616 1166 l 520 1082 q 481 1077 502 1079 q 442 1076 459 1076 q 404 1077 423 1076 q 370 1082 386 1079 l 547 1234 "},"Í":{"x_min":129.171875,"x_max":615.453125,"ha":400,"o":"m 304 998 q 340 1002 322 1001 q 376 1004 358 1004 q 413 1002 395 1004 q 447 998 430 1001 l 272 0 q 235 -4 252 -2 q 198 -5 218 -5 q 161 -4 179 -5 q 129 0 144 -2 l 304 998 m 436 1232 q 475 1236 452 1234 q 522 1237 498 1237 q 573 1236 547 1237 q 615 1232 600 1234 l 414 1079 q 378 1075 400 1076 q 334 1075 357 1075 q 296 1076 315 1075 q 266 1080 277 1077 l 436 1232 "},"´":{"x_min":352.8125,"x_max":663.9375,"ha":695,"o":"m 487 1001 q 531 1005 509 1004 q 577 1007 554 1007 q 622 1005 601 1007 q 663 1001 643 1004 l 491 825 q 457 820 476 822 q 418 819 438 819 q 386 820 402 819 q 352 825 369 822 l 487 1001 "},"ì":{"x_min":144.453125,"x_max":450.4375,"ha":396,"o":"m 146 1001 q 187 1005 167 1004 q 232 1007 208 1007 q 278 1005 255 1007 q 322 1001 301 1004 l 450 825 q 383 819 418 819 q 344 820 362 819 q 311 825 326 822 l 146 1001 m 250 602 l 163 602 q 167 657 163 630 q 181 712 170 683 l 404 712 l 279 0 q 243 -3 263 -2 q 208 -4 223 -4 q 176 -3 193 -4 q 144 0 159 -2 l 250 602 "},"±":{"x_min":116.296875,"x_max":798.671875,"ha":833,"o":"m 726 127 l 726 118 q 720 56 726 86 q 705 1 714 27 l 116 1 q 121 65 116 34 q 138 127 127 95 l 726 127 m 420 426 l 193 426 q 197 485 193 454 q 212 548 201 516 l 443 548 l 487 801 q 518 805 502 804 q 551 807 534 807 q 583 805 566 807 q 615 801 600 804 l 570 548 l 798 548 q 794 488 798 518 q 779 426 790 459 l 548 426 l 504 173 q 440 168 476 168 q 407 169 423 168 q 376 173 391 170 l 420 426 "},"Ú":{"x_min":175.015625,"x_max":976.46875,"ha":921,"o":"m 294 998 q 331 1002 312 1001 q 368 1004 350 1004 q 403 1002 386 1004 q 437 998 420 1001 l 337 431 q 320 269 320 336 q 356 147 320 184 q 479 111 391 111 q 581 131 538 111 q 652 191 623 151 q 701 292 682 231 q 734 431 720 352 l 833 998 q 870 1002 852 1001 q 907 1004 887 1004 q 942 1002 923 1004 q 976 998 961 1001 l 870 397 q 822 219 852 297 q 745 89 793 141 q 627 10 697 37 q 458 -16 556 -16 q 245 51 315 -16 q 175 262 175 119 q 179 330 175 294 q 190 406 183 366 l 294 998 m 705 1232 q 744 1236 721 1234 q 791 1237 767 1237 q 842 1236 816 1237 q 884 1232 869 1234 l 683 1079 q 647 1075 669 1076 q 603 1075 626 1075 q 565 1076 584 1075 q 535 1080 546 1077 l 705 1232 "},"|":{"x_min":130.5625,"x_max":495.875,"ha":463,"o":"m 361 1077 q 395 1082 377 1080 q 430 1083 413 1083 q 465 1082 448 1083 q 495 1077 481 1080 l 265 -233 q 233 -237 250 -236 q 198 -238 216 -238 q 162 -237 179 -238 q 130 -233 145 -236 l 361 1077 "},"§":{"x_min":152.796875,"x_max":794.515625,"ha":758,"o":"m 293 336 q 206 388 234 355 q 177 473 177 420 q 208 579 177 531 q 288 670 238 627 q 267 711 276 688 q 258 763 258 734 q 283 868 258 823 q 350 941 308 912 q 449 984 393 970 q 568 998 505 998 q 694 986 634 998 q 794 955 754 973 q 774 900 787 926 q 745 851 761 875 q 666 877 713 866 q 572 888 618 888 q 514 884 544 888 q 459 870 484 880 q 418 841 434 859 q 402 793 402 822 q 431 734 402 752 q 495 702 459 715 l 640 651 q 728 600 694 632 q 762 515 762 569 q 732 411 762 459 q 657 319 702 362 q 698 216 698 275 q 672 112 698 156 q 604 38 647 68 q 506 -4 562 9 q 388 -18 450 -18 q 320 -14 355 -18 q 254 -5 286 -11 q 197 7 223 0 q 152 23 170 15 q 172 79 159 52 q 200 129 184 105 q 283 102 231 113 q 381 90 334 90 q 436 93 406 90 q 493 107 466 97 q 536 138 519 118 q 554 190 554 158 q 527 245 554 226 q 463 277 500 265 l 293 336 m 576 375 q 612 418 595 394 q 629 470 629 443 q 608 510 629 493 q 556 541 587 527 q 486 566 525 554 q 415 591 448 579 l 365 611 q 327 568 344 593 q 309 516 309 544 q 327 473 309 488 q 386 444 345 458 q 461 417 423 430 q 538 388 500 404 l 576 375 "},"Ý":{"x_min":184.734375,"x_max":908.40625,"ha":763,"o":"m 375 363 l 184 998 q 229 1002 204 1001 q 279 1002 255 1002 q 336 998 308 1002 l 469 508 l 755 998 q 834 1002 793 1002 q 872 1002 852 1002 q 908 998 893 1001 l 515 359 l 452 0 q 379 -4 415 -4 q 309 0 340 -4 l 375 363 m 630 1232 q 669 1236 646 1234 q 716 1237 692 1237 q 767 1236 741 1237 q 809 1232 794 1234 l 608 1079 q 572 1075 594 1076 q 528 1075 551 1075 q 490 1076 509 1075 q 460 1080 471 1077 l 630 1232 "},"b":{"x_min":116.671875,"x_max":794.515625,"ha":793,"o":"m 269 108 q 306 101 284 104 q 348 98 329 98 q 467 125 412 98 q 561 197 522 151 q 624 308 601 244 q 647 447 647 372 q 616 566 647 522 q 523 609 584 609 q 454 594 487 609 q 392 545 420 579 q 341 459 363 512 q 306 327 319 405 l 269 108 m 243 733 q 263 866 255 809 q 272 966 272 922 q 272 994 272 984 q 270 1018 272 1004 q 307 1022 286 1020 q 344 1023 329 1023 q 375 1022 358 1023 q 408 1019 393 1022 q 410 993 409 1005 q 411 968 411 982 q 404 884 411 936 q 388 788 397 833 l 356 607 q 396 654 375 632 q 445 693 418 676 q 508 719 473 709 q 587 729 543 729 q 738 661 683 729 q 794 472 794 594 q 764 285 794 373 q 674 129 734 197 q 522 22 613 62 q 309 -16 431 -16 q 204 -6 256 -16 q 116 16 151 2 l 243 733 "},"q":{"x_min":118.0625,"x_max":784.78125,"ha":765,"o":"m 551 145 q 510 89 534 118 q 454 37 486 61 q 385 -1 423 13 q 302 -16 347 -16 q 164 44 211 -16 q 118 209 118 105 q 148 401 118 308 q 238 567 179 494 q 387 684 298 640 q 593 729 476 729 q 694 720 644 729 q 784 701 744 712 l 604 -327 q 569 -331 588 -330 q 536 -333 550 -333 q 502 -331 520 -333 q 468 -327 483 -330 l 551 145 m 634 607 q 600 612 619 611 q 559 613 581 613 q 435 581 490 613 q 341 497 380 550 q 280 377 301 444 q 259 238 259 309 q 284 134 259 172 q 354 97 308 97 q 437 125 397 97 q 511 202 477 152 q 568 317 544 251 q 607 458 593 383 l 634 607 "},"Ö":{"x_min":155.5625,"x_max":990.359375,"ha":974,"o":"m 484 -16 q 339 9 401 -16 q 236 84 277 36 q 175 200 195 131 q 155 350 155 268 q 188 597 155 477 q 286 810 222 718 q 445 959 351 902 q 661 1015 540 1015 q 807 987 744 1015 q 909 911 869 959 q 970 794 950 862 q 990 645 990 726 q 956 395 990 515 q 857 184 922 276 q 699 38 793 93 q 484 -16 605 -16 m 500 105 q 645 153 581 105 q 752 278 708 201 q 818 452 795 355 q 841 644 841 548 q 795 823 841 757 q 644 890 748 890 q 497 843 561 890 q 390 719 433 795 q 325 546 347 643 q 302 351 302 450 q 350 170 302 234 q 500 105 398 105 m 457 1080 q 480 1220 457 1152 q 518 1225 500 1223 q 554 1226 537 1226 q 591 1225 572 1226 q 626 1220 611 1223 q 602 1080 626 1148 q 564 1076 583 1077 q 527 1075 546 1075 q 492 1076 511 1075 q 457 1080 473 1077 m 754 1080 q 778 1220 754 1150 q 815 1225 796 1223 q 851 1226 834 1226 q 888 1225 869 1226 q 923 1220 907 1223 q 900 1080 921 1150 q 862 1076 880 1077 q 825 1075 843 1075 q 789 1076 808 1075 q 754 1080 769 1077 "},"z":{"x_min":43.0625,"x_max":708.390625,"ha":624,"o":"m 43 19 l 488 602 l 180 602 q 184 657 180 630 q 200 712 187 683 l 704 712 l 708 694 l 261 108 l 598 108 q 594 52 598 80 q 579 0 590 23 l 47 0 l 43 19 "},"ã":{"x_min":113.890625,"x_max":805.28125,"ha":770,"o":"m 632 607 q 597 612 615 611 q 556 613 579 613 q 432 581 487 613 q 338 496 377 550 q 277 375 298 443 q 256 237 256 308 q 280 134 256 170 q 351 97 304 97 q 434 125 394 97 q 508 202 475 152 q 566 317 541 251 q 604 458 590 383 l 632 607 m 711 302 q 686 159 695 219 q 677 55 677 100 q 678 27 677 37 q 682 1 679 16 q 648 -2 666 -1 q 615 -4 630 -4 q 584 -2 601 -4 q 552 1 568 -1 q 548 32 550 16 q 547 72 547 48 q 550 113 547 87 q 558 161 554 140 q 518 99 543 130 q 460 42 493 68 q 386 0 427 16 q 298 -16 345 -16 q 160 43 206 -16 q 113 208 113 104 q 144 400 113 306 q 234 567 175 494 q 383 684 294 640 q 590 729 472 729 q 691 721 640 729 q 780 700 741 713 l 711 302 m 337 916 q 400 965 363 944 q 481 986 437 986 q 534 978 510 986 q 580 961 558 970 q 625 945 602 952 q 676 937 648 937 q 719 944 699 937 q 766 975 738 951 q 790 939 777 961 q 805 897 802 918 q 741 851 778 872 q 659 830 703 830 q 606 838 630 830 q 560 855 583 845 q 515 872 538 865 q 467 880 492 880 q 422 871 441 880 q 377 841 403 862 q 352 876 364 855 q 337 916 339 897 "},"æ":{"x_min":113.890625,"x_max":1177.875,"ha":1146,"o":"m 630 605 q 555 613 597 613 q 431 581 486 613 q 336 495 376 548 q 276 375 297 443 q 255 237 255 308 q 279 134 255 170 q 350 97 304 97 q 434 125 394 97 q 508 201 475 152 q 566 315 541 250 q 604 458 590 381 l 630 605 m 800 398 q 917 425 870 409 q 991 460 963 441 q 1029 500 1018 479 q 1040 544 1040 520 q 1017 599 1040 577 q 952 620 994 620 q 870 601 908 620 q 804 549 833 581 q 754 474 775 516 q 723 386 734 431 l 800 398 m 712 283 q 755 147 712 198 q 890 95 798 95 q 995 109 945 95 q 1086 137 1045 122 q 1104 87 1100 116 q 1109 29 1109 58 q 1059 11 1088 19 q 996 -3 1029 2 q 930 -13 963 -9 q 869 -16 897 -16 q 756 -2 804 -16 q 675 36 708 11 q 622 95 641 61 q 593 169 602 129 q 468 31 538 80 q 309 -16 397 -16 q 161 43 209 -16 q 113 208 113 104 q 144 399 113 305 q 234 566 175 493 q 381 684 293 640 q 584 729 469 729 q 675 721 629 729 q 759 701 720 713 q 752 661 755 682 q 745 622 748 641 q 848 698 788 668 q 986 729 908 729 q 1125 684 1073 729 q 1177 563 1177 638 q 1148 457 1177 502 q 1065 380 1118 412 q 941 327 1012 348 q 784 294 869 306 l 712 283 "},"®":{"x_min":152.796875,"x_max":1183.421875,"ha":1175,"o":"m 497 775 q 566 782 531 779 q 641 784 600 784 q 733 775 691 784 q 804 745 775 765 q 852 694 834 726 q 869 619 869 662 q 860 562 869 587 q 837 518 851 537 q 806 485 823 498 q 772 462 788 472 l 916 241 q 881 238 897 238 q 850 237 865 237 q 795 241 820 237 l 637 488 l 665 501 q 729 542 698 516 q 759 608 759 568 q 730 670 759 648 q 652 693 701 693 q 629 692 641 693 q 601 688 616 691 l 601 240 q 550 236 580 236 q 497 240 519 236 l 497 775 m 668 72 q 841 105 763 72 q 971 195 918 138 q 1053 330 1025 252 q 1082 498 1082 408 q 1053 665 1082 587 q 971 800 1025 743 q 841 890 918 857 q 668 923 763 923 q 494 890 570 923 q 364 800 418 857 q 282 665 311 743 q 254 498 254 587 q 282 330 254 408 q 364 195 311 252 q 494 105 418 138 q 668 72 570 72 m 668 -18 q 457 21 552 -18 q 295 129 362 61 q 190 293 227 198 q 152 498 152 387 q 190 703 152 608 q 295 867 227 798 q 457 975 362 936 q 668 1015 552 1015 q 878 976 783 1015 q 1041 868 973 937 q 1145 704 1108 798 q 1183 498 1183 609 q 1145 293 1183 387 q 1041 129 1108 198 q 878 21 973 61 q 668 -18 783 -18 "},"É":{"x_min":127.78125,"x_max":832.015625,"ha":728,"o":"m 302 998 l 832 998 q 809 873 832 936 l 423 873 l 373 588 l 682 588 q 659 463 682 525 l 351 463 q 321 293 336 377 q 291 123 306 209 l 688 123 q 682 61 684 87 q 666 0 679 34 l 127 0 l 302 998 m 648 1232 q 687 1236 664 1234 q 734 1237 710 1237 q 785 1236 759 1237 q 827 1232 812 1234 l 626 1079 q 590 1075 612 1076 q 546 1075 569 1075 q 508 1076 527 1075 q 478 1080 489 1077 l 648 1232 "},"~":{"x_min":130.5625,"x_max":727.84375,"ha":665,"o":"m 130 566 q 169 596 145 581 q 219 622 193 611 q 274 641 245 634 q 329 648 302 648 q 390 639 362 648 q 444 620 418 630 q 498 601 470 609 q 558 593 526 593 q 611 604 583 593 q 675 645 638 615 q 706 600 694 622 q 727 550 718 579 q 641 497 690 518 q 537 477 591 477 q 477 486 505 477 q 422 504 450 494 q 367 524 394 515 q 311 533 340 533 q 251 520 283 533 q 184 479 219 508 q 151 519 165 498 q 130 566 137 540 "},"³":{"x_min":163.90625,"x_max":630.609375,"ha":625,"o":"m 302 701 l 462 886 l 262 886 q 265 933 262 909 q 277 982 269 957 l 623 982 l 630 961 l 462 761 q 557 712 527 752 q 587 623 587 672 q 567 531 587 572 q 513 464 547 491 q 433 422 479 437 q 337 408 387 408 q 238 417 281 408 q 163 440 194 426 q 204 529 172 486 q 270 510 238 518 q 334 502 301 502 q 383 508 359 502 q 425 526 406 513 q 455 559 444 538 q 466 609 466 580 q 441 670 466 650 q 372 690 415 690 q 345 688 361 690 q 315 684 330 687 l 302 701 "},"¡":{"x_min":68.0625,"x_max":395.859375,"ha":392,"o":"m 201 419 q 268 423 236 423 q 333 419 301 423 l 216 -280 q 144 -284 179 -284 q 68 -280 106 -284 l 201 419 m 222 563 q 229 641 222 604 q 247 718 236 677 q 285 722 266 720 q 322 723 304 723 q 360 722 341 723 q 395 718 379 720 q 369 563 395 638 q 331 559 350 561 q 294 558 313 558 q 257 559 276 558 q 222 563 238 561 "},"[":{"x_min":77.78125,"x_max":595.875,"ha":475,"o":"m 304 1055 l 595 1055 q 591 998 595 1027 q 576 943 586 968 l 419 943 l 233 -120 l 388 -120 q 383 -176 387 -147 q 369 -233 379 -205 l 77 -233 l 304 1055 "},"L":{"x_min":127.78125,"x_max":663.9375,"ha":681,"o":"m 302 998 q 338 1002 319 1001 q 376 1004 356 1004 q 411 1002 394 1004 q 444 998 427 1001 l 291 125 l 663 125 q 656 59 661 88 q 640 0 652 30 l 127 0 l 302 998 "}," ":{"x_min":0,"x_max":0,"ha":313},"%":{"x_min":158.125,"x_max":1365.109375,"ha":1370,"o":"m 1072 983 q 1110 987 1089 986 q 1148 988 1130 988 q 1186 987 1166 988 q 1221 983 1205 986 l 451 1 q 415 -2 432 -1 q 382 -4 398 -4 q 342 -2 364 -4 q 304 1 321 -1 l 1072 983 m 1080 84 q 1151 109 1122 84 q 1199 170 1180 133 q 1226 252 1217 208 q 1235 334 1235 295 q 1140 472 1235 472 q 1069 447 1098 472 q 1022 384 1041 422 q 995 302 1003 347 q 987 219 987 258 q 1080 84 987 84 m 1067 -15 q 908 50 959 -15 q 858 215 858 115 q 876 344 858 280 q 931 459 894 408 q 1023 542 967 511 q 1153 573 1078 573 q 1248 556 1208 573 q 1314 508 1288 538 q 1352 434 1340 477 q 1365 341 1365 391 q 1345 208 1365 272 q 1288 94 1326 144 q 1195 14 1251 44 q 1067 -15 1140 -15 m 380 509 q 451 534 422 509 q 499 595 480 558 q 526 677 517 633 q 535 759 535 720 q 440 897 535 897 q 369 872 398 897 q 322 809 341 847 q 295 727 303 772 q 287 644 287 683 q 380 509 287 509 m 367 409 q 208 475 259 409 q 158 640 158 540 q 176 769 158 705 q 231 884 194 833 q 323 967 267 936 q 453 998 378 998 q 548 981 508 998 q 614 933 588 963 q 652 859 640 902 q 665 766 665 816 q 645 633 665 697 q 588 519 626 569 q 495 439 551 469 q 367 409 440 409 "},"P":{"x_min":129.171875,"x_max":845.90625,"ha":786,"o":"m 304 1000 q 402 1010 347 1005 q 506 1015 458 1015 q 633 1002 572 1015 q 741 959 694 990 q 817 877 788 929 q 845 748 845 826 q 813 581 845 654 q 726 460 782 509 q 593 385 670 411 q 427 359 516 359 q 334 363 372 359 l 270 0 q 198 -4 234 -4 q 129 0 162 -4 l 304 1000 m 356 487 q 394 483 376 484 q 437 481 412 481 q 540 496 493 481 q 622 541 587 511 q 676 618 657 570 q 695 733 695 666 q 643 860 695 826 q 500 894 590 894 q 463 893 481 894 q 426 888 445 891 l 356 487 "},"À":{"x_min":48.609375,"x_max":808.390625,"ha":832,"o":"m 502 998 q 546 1002 520 1001 q 591 1002 572 1002 q 634 1002 612 1002 q 672 998 655 1001 l 808 0 q 727 -4 768 -4 q 659 0 694 -4 l 633 234 l 297 234 l 195 0 q 120 -4 162 -4 q 82 -3 101 -4 q 48 0 63 -2 l 502 998 m 619 356 l 562 838 l 351 356 l 619 356 m 377 1237 q 421 1241 394 1240 q 474 1243 448 1243 q 520 1241 498 1243 q 557 1237 542 1240 l 684 1080 q 653 1075 673 1077 q 614 1073 634 1073 q 574 1075 592 1073 q 544 1079 556 1076 l 377 1237 "},"_":{"x_min":-12.5,"x_max":662.546875,"ha":675,"o":"m 662 -19 q 657 -74 662 -50 q 645 -122 652 -98 l -11 -122 q -11 -115 -11 -119 q -12 -108 -12 -111 q -9 -66 -12 -88 q 4 -19 -5 -44 l 662 -19 "},"ñ":{"x_min":123.625,"x_max":784.78125,"ha":799,"o":"m 197 412 q 221 555 212 495 q 230 659 230 615 q 229 688 230 677 q 226 713 229 698 q 259 718 241 716 q 293 719 277 719 q 324 718 306 719 q 355 713 341 716 q 359 688 358 702 q 361 650 361 673 q 357 600 361 623 q 350 554 354 576 q 388 614 363 583 q 447 670 413 645 q 521 712 480 695 q 608 729 562 729 q 738 684 691 729 q 784 547 784 640 q 782 500 784 526 q 775 451 779 475 l 695 0 q 659 -4 679 -2 q 625 -5 640 -5 q 591 -4 609 -5 q 558 0 572 -2 l 633 427 q 639 470 637 450 q 641 506 641 491 q 616 586 641 562 q 547 609 590 609 q 473 586 509 609 q 405 519 437 563 q 347 409 373 475 q 306 259 322 344 l 261 0 q 225 -4 244 -2 q 190 -5 205 -5 q 156 -4 175 -5 q 123 0 137 -2 l 197 412 m 308 916 q 371 965 334 944 q 452 986 408 986 q 505 978 481 986 q 551 961 529 970 q 596 945 573 952 q 647 937 619 937 q 690 944 670 937 q 737 975 709 951 q 761 939 748 961 q 776 897 773 918 q 712 851 749 872 q 630 830 674 830 q 577 838 601 830 q 531 855 554 845 q 486 872 509 865 q 438 880 463 880 q 393 871 412 880 q 348 841 374 862 q 323 876 335 855 q 308 916 310 897 "},"+":{"x_min":193.078125,"x_max":798.671875,"ha":833,"o":"m 420 426 l 193 426 q 197 485 193 454 q 212 548 201 516 l 443 548 l 487 801 q 518 805 502 804 q 551 807 534 807 q 583 805 566 807 q 615 801 600 804 l 570 548 l 798 548 q 794 488 798 518 q 779 426 790 459 l 548 426 l 504 173 q 440 168 476 168 q 407 169 423 168 q 376 173 391 170 l 420 426 "},"½":{"x_min":194.453125,"x_max":1368.4375,"ha":1458,"o":"m 1119 983 q 1157 987 1136 986 q 1195 988 1177 988 q 1233 987 1213 988 q 1268 983 1252 986 l 498 1 q 462 -2 479 -1 q 429 -4 445 -4 q 389 -2 411 -4 q 351 1 368 -1 l 1119 983 m 337 523 l 393 840 l 262 787 q 230 877 234 825 l 500 987 l 536 987 l 455 523 l 583 523 q 579 474 583 498 q 565 425 576 450 l 194 425 q 197 474 194 450 q 213 523 201 498 l 337 523 m 911 17 l 1132 224 q 1208 303 1175 264 q 1242 389 1242 341 q 1162 464 1242 464 q 1096 455 1130 464 q 1033 433 1061 445 q 1017 475 1025 452 q 1008 523 1010 498 q 1094 553 1048 541 q 1192 564 1140 564 q 1321 523 1273 564 q 1368 410 1368 481 q 1356 341 1368 373 q 1325 281 1344 309 q 1278 227 1305 253 q 1219 171 1250 201 l 1142 101 l 1347 101 q 1329 1 1347 52 l 914 1 l 911 17 "},"Æ":{"x_min":0,"x_max":1320.9375,"ha":1218,"o":"m 690 998 l 1320 998 q 1300 873 1320 940 l 913 873 l 863 588 l 1172 588 q 1166 527 1172 559 q 1150 463 1161 495 l 841 463 l 782 123 l 1177 123 q 1172 61 1177 93 q 1157 0 1166 30 l 618 0 l 658 233 l 322 233 l 156 0 q 115 -4 137 -2 q 73 -5 94 -5 q 35 -4 54 -5 q 0 0 16 -2 l 690 998 m 680 355 l 773 884 l 765 884 l 406 355 l 680 355 "},"Ë":{"x_min":127.78125,"x_max":832.015625,"ha":728,"o":"m 302 998 l 832 998 q 809 873 832 936 l 423 873 l 373 588 l 682 588 q 659 463 682 525 l 351 463 q 321 293 336 377 q 291 123 306 209 l 688 123 q 682 61 684 87 q 666 0 679 34 l 127 0 l 302 998 m 362 1080 q 385 1220 362 1152 q 423 1225 405 1223 q 459 1226 442 1226 q 496 1225 477 1226 q 531 1220 516 1223 q 507 1080 531 1148 q 469 1076 488 1077 q 432 1075 451 1075 q 397 1076 416 1075 q 362 1080 378 1077 m 659 1080 q 683 1220 659 1150 q 720 1225 701 1223 q 756 1226 739 1226 q 793 1225 774 1226 q 828 1220 812 1223 q 805 1080 826 1150 q 767 1076 785 1077 q 730 1075 748 1075 q 694 1076 713 1075 q 659 1080 674 1077 "},"'":{"x_min":169.453125,"x_max":368.078125,"ha":276,"o":"m 236 997 q 269 1001 251 1000 q 304 1002 287 1002 q 368 997 341 1002 l 302 616 q 236 612 269 612 q 169 616 198 612 l 236 997 "},"ª":{"x_min":187.515625,"x_max":730.609375,"ha":695,"o":"m 600 895 q 574 899 587 898 q 545 900 561 900 q 450 875 493 900 q 376 809 406 850 q 329 716 345 768 q 313 608 313 663 q 330 529 313 558 q 383 500 347 500 q 447 522 416 500 q 503 582 477 544 q 548 672 529 620 q 579 784 568 725 l 600 895 m 668 620 q 651 465 651 520 q 651 442 651 452 q 652 419 651 431 q 620 417 638 418 q 591 416 602 416 q 566 417 580 416 q 538 419 551 418 q 533 477 533 441 q 534 502 533 487 q 538 536 536 516 q 459 445 508 484 q 343 405 411 405 q 226 452 265 405 q 187 581 187 498 q 211 734 187 659 q 284 866 236 808 q 404 960 333 925 q 570 995 476 995 q 654 988 611 995 q 730 970 698 982 l 668 620 "},"ð":{"x_min":120.84375,"x_max":812.5625,"ha":785,"o":"m 509 873 q 372 912 448 908 q 378 963 372 936 q 402 1023 384 991 q 532 999 473 1019 q 632 947 591 979 l 770 1023 q 797 989 786 1009 q 812 948 808 969 l 697 884 q 770 732 747 822 q 794 538 794 641 q 773 344 794 443 q 704 165 752 245 q 578 34 657 86 q 386 -16 500 -16 q 265 4 316 -16 q 183 61 215 25 q 136 149 151 98 q 120 258 120 200 q 143 408 120 333 q 209 542 165 483 q 318 638 252 601 q 472 676 384 676 q 584 650 534 676 q 661 584 633 625 q 637 716 658 658 q 580 815 616 775 l 437 734 q 411 769 422 748 q 397 809 400 790 l 509 873 m 402 91 q 500 118 458 91 q 572 187 543 145 q 616 280 601 229 q 632 381 632 331 q 594 520 632 470 q 477 569 556 569 q 378 539 419 569 q 311 463 337 509 q 272 363 284 418 q 261 262 261 309 q 293 138 261 184 q 402 91 325 91 "},"T":{"x_min":187.515625,"x_max":847.296875,"ha":715,"o":"m 434 875 l 187 875 q 193 936 187 905 q 209 998 198 966 l 847 998 q 841 936 847 966 q 825 875 836 907 l 577 875 l 425 0 q 351 -4 388 -4 q 315 -3 333 -4 q 281 0 297 -2 l 434 875 "},"Þ":{"x_min":133.34375,"x_max":819.515625,"ha":801,"o":"m 308 998 q 376 1002 341 1002 q 415 1002 395 1002 q 450 998 434 1001 l 422 843 q 455 844 440 844 q 486 844 470 844 q 613 830 552 844 q 719 784 673 816 q 792 699 765 751 q 819 570 819 647 q 788 409 819 480 q 702 290 758 338 q 569 215 647 241 q 397 190 491 190 q 350 191 369 190 q 309 194 331 193 l 275 0 q 234 -3 252 -2 q 194 -4 215 -4 q 162 -2 179 -4 q 133 0 145 -1 l 308 998 m 330 316 q 366 313 350 313 q 415 312 383 312 q 518 327 470 312 q 598 372 565 341 q 650 450 632 402 q 669 562 669 497 q 653 643 669 612 q 611 692 637 675 q 552 716 586 709 q 481 723 518 723 q 459 723 468 723 q 441 722 450 723 q 422 721 431 722 q 400 719 413 720 l 330 316 "},"j":{"x_min":-119.453125,"x_max":431.984375,"ha":394,"o":"m 250 602 l 163 602 q 167 656 163 630 q 181 712 170 682 l 404 712 l 262 -95 q -2 -338 219 -338 q -65 -334 -36 -338 q -119 -320 -95 -329 q -111 -268 -119 -298 q -93 -215 -104 -237 q -54 -224 -77 -220 q -12 -227 -31 -227 q 77 -197 38 -227 q 129 -87 115 -166 l 250 602 m 248 859 q 255 936 248 900 q 273 1009 262 972 q 315 1013 293 1012 q 354 1015 337 1015 q 392 1013 370 1015 q 431 1009 413 1012 q 423 932 430 969 q 405 859 416 895 q 363 856 386 857 q 325 855 341 855 q 287 856 309 855 q 248 859 265 857 "},"1":{"x_min":169.453125,"x_max":743.109375,"ha":833,"o":"m 402 118 l 504 702 l 309 615 q 282 670 293 643 q 269 726 272 697 l 654 902 l 680 902 l 541 118 l 743 118 q 737 59 743 90 q 723 0 732 27 l 169 0 q 175 61 169 29 q 188 118 180 93 l 402 118 "},"ä":{"x_min":113.890625,"x_max":798.5,"ha":770,"o":"m 632 607 q 597 612 615 611 q 556 613 579 613 q 432 581 487 613 q 338 496 377 550 q 277 375 298 443 q 256 237 256 308 q 280 134 256 170 q 351 97 304 97 q 434 125 394 97 q 508 202 475 152 q 566 317 541 251 q 604 458 590 383 l 632 607 m 711 302 q 686 159 695 219 q 677 55 677 100 q 678 27 677 37 q 682 1 679 16 q 648 -2 666 -1 q 615 -4 630 -4 q 584 -2 601 -4 q 552 1 568 -1 q 548 32 550 16 q 547 72 547 48 q 550 113 547 87 q 558 161 554 140 q 518 99 543 130 q 460 42 493 68 q 386 0 427 16 q 298 -16 345 -16 q 160 43 206 -16 q 113 208 113 104 q 144 400 113 306 q 234 567 175 494 q 383 684 294 640 q 590 729 472 729 q 691 721 640 729 q 780 700 741 713 l 711 302 m 348 838 q 355 909 349 875 q 373 977 360 943 q 410 982 391 980 q 444 983 429 983 q 479 982 459 983 q 515 977 498 980 q 508 907 513 941 q 490 838 502 873 q 419 834 454 834 q 384 835 404 834 q 348 838 365 836 m 631 838 q 638 909 633 875 q 656 977 642 943 q 692 982 673 980 q 727 983 711 983 q 762 982 742 983 q 798 977 781 980 q 790 908 795 941 q 773 838 784 875 q 702 834 737 834 q 667 835 687 834 q 631 838 648 836 "},"<":{"x_min":215.296875,"x_max":847.296875,"ha":833,"o":"m 847 787 q 840 709 847 748 q 825 645 833 669 l 351 473 l 763 298 q 756 227 763 262 q 738 169 748 193 l 215 404 q 240 551 215 486 l 847 787 "},"£":{"x_min":143.0625,"x_max":894.515625,"ha":833,"o":"m 143 15 q 157 27 150 22 q 173 40 165 33 q 290 192 248 102 q 331 390 331 281 q 331 406 331 398 q 330 422 330 413 l 205 422 q 225 530 205 475 l 325 530 q 320 581 322 556 q 319 630 319 607 q 339 773 319 707 q 402 890 359 840 q 511 969 445 940 q 668 998 577 998 q 805 983 750 998 q 894 952 861 968 q 875 898 887 925 q 844 840 863 872 q 763 868 808 855 q 665 880 718 880 q 570 862 608 880 q 507 811 531 844 q 472 733 483 779 q 462 632 462 687 q 464 584 462 609 q 469 530 466 558 l 729 530 q 709 422 729 476 l 475 422 q 456 270 475 348 q 379 125 438 193 l 772 125 q 765 56 772 88 q 751 0 758 25 l 145 0 l 143 15 "},"¹":{"x_min":194.453125,"x_max":583.375,"ha":625,"o":"m 337 523 l 393 840 l 262 787 q 230 877 234 825 l 500 987 l 536 987 l 455 523 l 583 523 q 579 474 583 498 q 565 425 576 450 l 194 425 q 197 474 194 450 q 213 523 201 498 l 337 523 "},"t":{"x_min":125.015625,"x_max":569.484375,"ha":486,"o":"m 237 602 l 125 602 q 129 656 125 630 q 144 712 133 682 l 255 712 q 268 786 262 748 q 273 863 273 823 l 273 886 q 340 907 301 900 q 406 913 379 913 q 409 888 408 901 q 409 862 409 876 q 398 755 409 819 l 390 712 l 569 712 q 565 656 569 682 q 551 602 561 630 l 373 602 l 319 301 q 306 235 312 269 q 301 173 301 201 q 322 115 301 131 q 380 100 344 100 q 423 103 404 100 q 462 112 443 106 q 469 81 466 98 q 472 45 472 65 q 472 25 472 36 q 470 4 472 15 q 423 -6 452 -1 q 361 -11 394 -11 q 279 -4 316 -11 q 216 18 243 1 q 175 65 190 36 q 161 144 161 95 q 165 200 161 170 q 176 262 170 230 l 237 602 "},"¬":{"x_min":186.125,"x_max":770.890625,"ha":833,"o":"m 770 536 l 770 148 q 741 144 758 145 q 708 143 723 143 q 675 144 693 143 q 643 148 657 145 l 643 408 l 190 408 q 186 438 187 420 q 186 470 186 455 q 186 504 186 486 q 190 536 187 522 l 770 536 "},"ù":{"x_min":141.671875,"x_max":802.84375,"ha":789,"o":"m 230 712 q 266 716 245 715 q 301 718 286 718 q 334 716 316 718 q 368 712 352 715 l 293 284 q 284 205 284 240 q 310 126 284 150 q 379 102 336 102 q 452 125 416 102 q 520 193 488 148 q 578 302 552 237 q 619 452 604 368 l 665 712 q 701 716 682 715 q 736 718 720 718 q 770 716 751 718 q 802 712 788 715 l 729 300 q 704 156 713 216 q 695 52 695 97 q 696 24 695 34 q 698 -1 697 13 q 666 -5 683 -4 q 633 -6 648 -6 q 602 -5 619 -6 q 570 -1 584 -4 q 565 62 565 16 q 568 112 565 88 q 576 158 572 136 q 537 97 562 129 q 479 41 512 66 q 404 0 445 16 q 318 -16 363 -16 q 188 27 234 -16 q 141 165 141 72 q 144 211 141 186 q 151 261 147 237 l 230 712 m 332 1001 q 373 1005 353 1004 q 418 1007 394 1007 q 464 1005 441 1007 q 508 1001 487 1004 l 636 825 q 569 819 604 819 q 530 820 548 819 q 497 825 512 822 l 332 1001 "},"W":{"x_min":220.84375,"x_max":1359.828125,"ha":1239,"o":"m 220 998 q 263 1002 240 1001 q 311 1002 287 1002 q 369 998 341 1002 l 387 184 l 715 998 q 754 1002 733 1001 q 794 1002 776 1002 q 829 1002 809 1002 q 863 998 848 1001 l 918 176 l 1215 998 q 1287 1002 1248 1002 q 1325 1002 1305 1002 q 1359 998 1344 1001 l 965 0 q 925 -3 948 -2 q 883 -4 902 -4 q 841 -3 863 -4 q 801 0 819 -2 l 747 765 l 429 0 q 386 -3 411 -2 q 343 -4 362 -4 q 304 -3 326 -4 q 268 0 283 -2 l 220 998 "},"ï":{"x_min":106.46875,"x_max":556.5,"ha":396,"o":"m 106 838 q 113 909 107 875 q 131 977 118 943 q 168 982 149 980 q 202 983 187 983 q 237 982 217 983 q 273 977 256 980 q 266 907 271 941 q 248 838 260 873 q 177 834 212 834 q 142 835 162 834 q 106 838 123 836 m 389 838 q 396 909 391 875 q 414 977 400 943 q 450 982 431 980 q 485 983 469 983 q 520 982 500 983 q 556 977 539 980 q 548 908 553 941 q 531 838 542 875 q 460 834 495 834 q 425 835 445 834 q 389 838 406 836 m 250 602 l 163 602 q 167 657 163 630 q 181 712 170 683 l 404 712 l 279 0 q 243 -3 263 -2 q 208 -4 223 -4 q 176 -3 193 -4 q 144 0 159 -2 l 250 602 "},">":{"x_min":172.234375,"x_max":805.625,"ha":833,"o":"m 668 484 l 256 655 q 262 720 256 687 q 280 786 268 754 l 805 551 q 799 478 805 519 q 779 404 793 437 l 172 168 q 173 200 172 181 q 178 239 175 219 q 186 278 181 259 q 194 309 190 297 l 668 484 "},"v":{"x_min":137.515625,"x_max":770.890625,"ha":695,"o":"m 137 712 q 172 716 154 715 q 209 718 191 718 q 249 716 230 718 q 284 712 268 715 l 365 140 l 544 500 q 595 618 576 565 q 616 702 615 672 l 616 712 q 654 716 634 715 q 693 718 673 718 q 734 716 713 718 q 770 712 754 715 l 770 705 q 763 659 770 683 q 737 595 757 634 q 575 296 658 444 q 411 0 493 148 q 338 -4 373 -4 q 302 -3 323 -4 q 265 0 280 -2 l 137 712 "},"û":{"x_min":141.671875,"x_max":802.84375,"ha":789,"o":"m 230 712 q 266 716 245 715 q 301 718 286 718 q 334 716 316 718 q 368 712 352 715 l 293 284 q 284 205 284 240 q 310 126 284 150 q 379 102 336 102 q 452 125 416 102 q 520 193 488 148 q 578 302 552 237 q 619 452 604 368 l 665 712 q 701 716 682 715 q 736 718 720 718 q 770 716 751 718 q 802 712 788 715 l 729 300 q 704 156 713 216 q 695 52 695 97 q 696 24 695 34 q 698 -1 697 13 q 666 -5 683 -4 q 633 -6 648 -6 q 602 -5 619 -6 q 570 -1 584 -4 q 565 62 565 16 q 568 112 565 88 q 576 158 572 136 q 537 97 562 129 q 479 41 512 66 q 404 0 445 16 q 318 -16 363 -16 q 188 27 234 -16 q 141 165 141 72 q 144 211 141 186 q 151 261 147 237 l 230 712 m 480 1001 q 520 1005 497 1004 q 562 1007 543 1007 q 601 1005 578 1007 q 643 1000 625 1004 l 746 825 q 717 820 733 822 q 683 819 701 819 q 647 820 667 819 q 611 825 628 822 l 554 934 l 457 825 q 419 820 440 822 q 380 819 397 819 q 341 820 361 819 q 308 825 322 822 l 480 1001 "},"Ò":{"x_min":155.5625,"x_max":990.359375,"ha":974,"o":"m 484 -16 q 339 9 401 -16 q 236 84 277 36 q 175 200 195 131 q 155 350 155 268 q 188 597 155 477 q 286 810 222 718 q 445 959 351 902 q 661 1015 540 1015 q 807 987 744 1015 q 909 911 869 959 q 970 794 950 862 q 990 645 990 726 q 956 395 990 515 q 857 184 922 276 q 699 38 793 93 q 484 -16 605 -16 m 500 105 q 645 153 581 105 q 752 278 708 201 q 818 452 795 355 q 841 644 841 548 q 795 823 841 757 q 644 890 748 890 q 497 843 561 890 q 390 719 433 795 q 325 546 347 643 q 302 351 302 450 q 350 170 302 234 q 500 105 398 105 m 507 1237 q 551 1241 524 1240 q 604 1243 578 1243 q 650 1241 628 1243 q 687 1237 672 1240 l 814 1080 q 783 1075 803 1077 q 744 1073 764 1073 q 704 1075 722 1073 q 674 1079 686 1076 l 507 1237 "},"&":{"x_min":126.40625,"x_max":1080.640625,"ha":1003,"o":"m 804 638 q 816 712 811 675 q 822 790 822 750 l 822 812 q 888 833 850 826 q 955 840 927 840 q 957 815 957 827 q 958 788 958 802 q 947 682 958 745 l 938 638 l 1080 638 q 1073 581 1077 608 q 1059 526 1068 555 l 919 526 l 887 347 q 745 69 852 155 q 454 -16 638 -16 q 322 0 381 -16 q 218 48 262 15 q 150 133 175 81 q 126 255 126 184 q 143 364 126 313 q 191 456 161 415 q 263 529 222 498 q 352 576 304 559 q 318 598 337 584 q 284 633 300 612 q 259 682 269 654 q 248 747 248 711 q 276 863 248 813 q 348 947 304 913 q 449 997 393 980 q 563 1013 505 1013 q 655 1007 611 1013 q 738 986 700 1001 q 727 930 734 955 q 704 880 719 905 q 636 897 669 891 q 562 904 602 904 q 438 865 487 904 q 390 755 390 826 q 431 666 390 693 q 527 638 472 638 l 804 638 m 783 526 l 547 526 q 351 456 422 526 q 280 272 280 387 q 327 150 280 195 q 473 105 373 105 q 597 125 548 105 q 679 181 647 145 q 729 267 712 218 q 757 373 747 316 l 783 526 "},"Ð":{"x_min":125.015625,"x_max":984.796875,"ha":967,"o":"m 229 469 l 125 469 q 128 522 125 497 q 141 573 131 548 l 247 573 l 322 998 q 372 1004 344 1001 q 429 1009 400 1007 q 486 1012 458 1011 q 538 1013 513 1013 q 740 984 655 1013 q 879 902 825 955 q 959 773 933 848 q 984 607 984 698 q 945 361 984 475 q 831 163 907 248 q 644 31 755 79 q 387 -16 533 -16 q 250 -11 312 -16 q 147 0 188 -6 l 229 469 m 309 116 q 360 111 327 113 q 423 109 393 109 q 595 145 519 109 q 725 245 672 181 q 807 397 779 309 q 834 587 834 484 q 768 812 834 734 q 548 890 701 890 q 494 888 520 890 q 445 883 468 886 l 390 573 l 629 573 q 625 520 629 547 q 612 469 622 494 l 372 469 l 309 116 "},"I":{"x_min":129.171875,"x_max":447.265625,"ha":400,"o":"m 304 998 q 340 1002 322 1001 q 376 1004 358 1004 q 413 1002 395 1004 q 447 998 430 1001 l 272 0 q 235 -4 252 -2 q 198 -5 218 -5 q 161 -4 179 -5 q 129 0 144 -2 l 304 998 "},"G":{"x_min":156.953125,"x_max":913.96875,"ha":913,"o":"m 758 515 q 793 519 775 518 q 829 520 812 520 q 866 519 848 520 q 900 515 883 518 q 856 272 877 393 q 813 30 834 152 q 683 -4 759 8 q 536 -16 607 -16 q 375 11 445 -16 q 255 89 304 38 q 181 211 206 140 q 156 369 156 283 q 190 613 156 497 q 293 820 225 730 q 463 962 362 909 q 701 1015 565 1015 q 824 1004 770 1015 q 913 977 877 993 q 897 919 907 945 q 870 861 888 893 q 793 883 832 876 q 702 890 754 890 q 525 847 600 890 q 403 732 451 804 q 332 569 355 661 q 309 380 309 477 q 376 175 309 241 q 561 108 443 108 q 629 113 595 108 q 688 127 663 118 l 758 515 "},"`":{"x_min":347.25,"x_max":651.4375,"ha":695,"o":"m 347 1001 q 388 1005 368 1004 q 433 1007 409 1007 q 479 1005 456 1007 q 523 1001 502 1004 l 651 825 q 584 819 619 819 q 545 820 563 819 q 512 825 527 822 l 347 1001 "},"·":{"x_min":145.734375,"x_max":326.296875,"ha":335,"o":"m 145 313 q 153 390 145 351 q 172 467 161 428 q 211 471 191 469 q 249 472 230 472 q 288 471 269 472 q 326 467 308 469 q 319 390 326 426 q 301 313 312 353 q 260 308 279 310 q 222 307 241 307 q 183 308 202 307 q 145 313 165 310 "},"r":{"x_min":112.515625,"x_max":608.375,"ha":507,"o":"m 112 0 q 146 184 127 87 q 181 372 165 281 q 208 539 197 463 q 219 659 219 615 q 218 688 219 677 q 215 713 218 698 q 248 717 230 716 q 281 718 266 718 q 313 717 295 718 q 344 713 330 716 q 348 689 347 702 q 350 652 350 676 q 345 590 350 620 q 385 637 363 615 q 433 677 406 659 q 491 706 459 695 q 562 716 523 716 q 586 715 573 716 q 608 711 600 713 q 602 647 608 683 q 580 587 595 612 q 563 590 575 588 q 540 591 551 591 q 389 525 447 591 q 306 319 331 458 l 250 0 q 193 -4 220 -4 l 158 -4 l 112 0 "},"¿":{"x_min":98.625,"x_max":609.765625,"ha":629,"o":"m 405 422 q 472 426 440 426 q 505 425 488 426 q 537 422 522 425 l 498 197 l 447 183 q 371 152 406 172 q 308 105 336 133 q 264 42 280 77 q 248 -36 248 6 q 293 -133 248 -100 q 412 -166 337 -166 q 503 -157 465 -166 q 586 -133 541 -148 q 602 -189 595 -156 q 609 -250 609 -222 q 491 -280 545 -273 q 381 -287 436 -287 q 259 -270 312 -287 q 170 -221 205 -252 q 116 -147 134 -190 q 98 -55 98 -105 q 121 59 98 5 q 184 155 144 112 q 274 230 223 198 q 381 279 325 262 l 405 422 m 419 563 q 427 643 420 605 q 447 718 433 680 q 486 722 466 720 q 525 723 505 723 q 563 722 544 723 q 601 718 581 720 q 593 638 600 677 q 573 563 587 600 q 534 559 554 561 q 495 556 515 556 q 458 559 477 556 q 419 563 438 561 "},"ý":{"x_min":30.5625,"x_max":759.78125,"ha":695,"o":"m 361 69 q 440 244 405 165 q 503 390 475 323 q 554 512 531 456 q 597 618 577 568 q 609 661 605 640 q 613 693 613 682 q 613 704 613 700 q 612 712 612 708 q 670 716 638 716 l 758 716 q 759 705 759 711 q 759 694 759 700 q 745 622 759 661 q 715 544 732 583 q 581 256 652 409 q 420 -83 509 102 q 345 -215 381 -165 q 274 -293 309 -265 q 202 -330 238 -320 q 125 -340 166 -340 q 30 -326 76 -340 q 38 -268 31 -295 q 61 -219 45 -240 q 91 -227 73 -223 q 125 -230 109 -230 q 168 -224 145 -230 q 214 -194 190 -218 q 266 -125 238 -170 q 327 0 294 -79 q 304 -1 316 -1 q 279 -1 291 -1 q 258 -1 269 -1 q 238 0 247 -1 q 192 355 215 177 q 145 712 169 533 q 181 716 165 715 q 216 718 197 718 q 254 716 236 718 q 290 712 272 715 l 361 69 m 508 1001 q 552 1005 530 1004 q 598 1007 575 1007 q 643 1005 622 1007 q 684 1001 664 1004 l 512 825 q 478 820 497 822 q 439 819 459 819 q 407 820 423 819 q 373 825 390 822 l 508 1001 "},"x":{"x_min":41.671875,"x_max":740.34375,"ha":681,"o":"m 172 712 q 205 716 187 715 q 243 718 223 718 q 276 716 262 718 q 309 712 290 715 l 405 369 l 227 109 q 194 51 205 77 q 183 0 183 25 q 140 -3 159 -2 q 108 -4 122 -4 q 78 -3 91 -4 q 41 0 65 -2 q 43 9 43 4 q 45 19 43 13 q 72 91 48 48 q 131 182 97 134 q 203 279 165 230 q 272 370 241 329 l 172 712 m 566 594 q 598 661 590 630 q 607 712 607 693 q 645 717 630 716 q 675 718 661 718 q 740 712 708 718 q 729 645 740 680 q 691 569 719 609 q 622 472 657 520 q 552 376 587 425 l 665 0 q 626 -4 644 -2 q 588 -5 608 -5 q 554 -4 572 -5 q 522 0 537 -2 q 468 184 494 93 q 416 369 443 276 l 566 594 "},"è":{"x_min":120.84375,"x_max":723.671875,"ha":692,"o":"m 258 283 q 305 143 262 190 q 438 95 348 95 q 544 109 494 95 q 634 137 594 122 q 652 87 647 116 q 658 29 658 58 q 607 11 637 19 q 545 -3 577 2 q 479 -13 512 -9 q 418 -16 445 -16 q 279 4 336 -16 q 188 64 223 26 q 136 154 152 102 q 120 268 120 206 q 149 435 120 352 q 231 583 177 518 q 359 688 284 648 q 525 729 433 729 q 670 684 616 729 q 723 563 723 638 q 693 457 723 502 q 611 380 663 412 q 486 327 558 348 q 330 294 415 306 l 258 283 m 345 400 q 463 428 416 412 q 537 463 509 444 q 576 502 565 481 q 587 548 587 523 q 565 600 587 580 q 501 620 543 620 q 419 600 456 620 q 352 547 381 580 q 301 472 322 515 q 269 386 280 430 l 345 400 m 332 1001 q 373 1005 353 1004 q 418 1007 394 1007 q 464 1005 441 1007 q 508 1001 487 1004 l 636 825 q 569 819 604 819 q 530 820 548 819 q 497 825 512 822 l 332 1001 "},"º":{"x_min":190.296875,"x_max":725.0625,"ha":695,"o":"m 405 405 q 245 462 300 405 q 190 623 190 519 q 208 749 190 683 q 265 870 226 815 q 365 961 304 926 q 511 997 426 997 q 671 939 618 997 q 725 776 725 882 q 707 650 725 715 q 650 530 688 584 q 550 441 611 476 q 405 405 490 405 m 413 500 q 499 527 463 500 q 556 595 534 554 q 589 686 579 637 q 600 776 600 734 q 573 868 600 837 q 500 900 547 900 q 415 872 450 900 q 359 802 380 844 q 327 712 337 761 q 316 622 316 663 q 413 500 316 500 "},"Ø":{"x_min":113.890625,"x_max":1029.25,"ha":974,"o":"m 216 111 q 155 350 155 202 q 188 597 155 477 q 286 810 222 718 q 445 959 351 902 q 661 1015 540 1015 q 869 948 790 1015 l 918 1011 q 945 1015 929 1013 q 975 1016 961 1016 q 1029 1011 1007 1016 l 929 883 q 990 645 990 788 q 956 395 990 515 q 857 184 922 276 q 699 38 793 93 q 484 -16 605 -16 q 277 45 356 -16 l 225 -20 q 172 -26 202 -26 q 141 -25 158 -26 q 113 -20 125 -23 l 216 111 m 362 156 q 500 105 411 105 q 645 153 581 105 q 752 278 708 201 q 818 452 795 355 q 841 644 841 548 q 826 751 841 707 l 362 156 m 783 837 q 644 890 733 890 q 497 843 561 890 q 390 719 433 795 q 325 546 347 643 q 302 351 302 450 q 319 243 302 288 l 783 837 "},"÷":{"x_min":211.125,"x_max":820.90625,"ha":833,"o":"m 370 230 q 402 305 370 275 q 477 336 433 336 q 541 313 518 336 q 563 248 563 290 q 534 177 563 208 q 456 145 504 145 q 393 171 415 145 q 370 230 370 197 m 454 733 q 485 808 454 777 q 561 838 516 838 q 624 816 601 838 q 647 751 647 793 q 617 679 647 711 q 540 647 587 647 q 476 673 498 647 q 454 733 454 700 m 820 552 q 815 488 820 522 q 798 426 809 454 l 211 426 q 217 490 211 456 q 233 552 223 523 l 820 552 "},"h":{"x_min":112.515625,"x_max":773.671875,"ha":788,"o":"m 241 732 q 263 866 255 809 q 272 966 272 922 q 271 993 272 983 q 269 1018 270 1002 q 306 1022 284 1020 q 344 1023 329 1023 q 375 1022 358 1023 q 406 1018 393 1020 q 411 966 411 993 q 409 929 411 951 q 404 884 406 908 q 397 836 401 861 q 388 788 393 811 q 370 695 379 741 q 354 601 362 648 q 454 690 393 652 q 593 727 515 727 q 725 683 677 727 q 773 545 773 638 q 770 500 773 525 q 763 450 768 475 l 684 0 q 649 -3 669 -2 q 613 -4 629 -4 q 579 -3 598 -4 q 547 0 561 -2 q 584 213 566 108 q 622 427 602 319 q 627 469 625 448 q 630 505 630 490 q 602 583 630 558 q 529 608 573 608 q 463 594 497 608 q 400 546 430 580 q 345 454 370 512 q 305 309 320 397 q 277 154 290 230 q 250 0 263 77 q 209 -3 230 -2 q 169 -4 188 -4 q 144 -3 162 -4 q 112 0 126 -2 l 241 732 "},".":{"x_min":84.734375,"x_max":265.296875,"ha":326,"o":"m 84 0 q 92 77 84 38 q 111 154 100 115 q 150 158 130 156 q 188 159 169 159 q 227 158 208 159 q 265 154 247 156 q 258 77 265 113 q 240 0 251 40 q 199 -4 218 -2 q 161 -5 180 -5 q 122 -4 141 -5 q 84 0 104 -2 "},";":{"x_min":-10.71875,"x_max":371.296875,"ha":328,"o":"m 121 151 q 155 156 137 155 q 189 158 172 158 q 225 156 207 158 q 258 151 243 155 l 122 -155 q 87 -159 104 -158 q 54 -161 69 -161 q -10 -155 17 -161 l 121 151 m 190 514 q 198 591 190 552 q 217 668 206 629 q 256 672 236 670 q 294 673 275 673 q 333 672 314 673 q 371 668 353 670 q 364 591 371 627 q 346 514 357 554 q 305 509 324 511 q 267 508 286 508 q 228 509 247 508 q 190 514 210 511 "},"f":{"x_min":-130.5625,"x_max":668.109375,"ha":467,"o":"m 245 602 l 130 602 q 134 656 130 630 q 148 712 137 682 l 263 712 l 270 752 q 363 962 294 893 q 556 1032 431 1032 q 619 1027 593 1032 q 668 1015 645 1022 q 650 954 659 979 q 627 904 641 930 q 595 913 612 909 q 556 918 579 918 q 504 910 527 918 q 461 884 480 902 q 429 832 443 865 q 406 750 415 800 q 402 731 404 740 q 398 712 401 722 l 569 712 q 566 658 569 683 q 551 602 562 633 l 380 602 l 273 -4 q 232 -161 256 -97 q 172 -264 208 -225 q 88 -321 136 -304 q -23 -338 40 -338 q -81 -334 -54 -338 q -130 -320 -109 -329 q -116 -263 -125 -288 q -94 -212 -108 -237 q -63 -221 -80 -218 q -27 -225 -45 -225 q 29 -216 4 -225 q 75 -183 55 -208 q 110 -113 94 -158 q 138 4 126 -68 l 245 602 "},"A":{"x_min":48.609375,"x_max":808.390625,"ha":832,"o":"m 502 998 q 546 1002 520 1001 q 591 1002 572 1002 q 634 1002 612 1002 q 672 998 655 1001 l 808 0 q 727 -4 768 -4 q 659 0 694 -4 l 633 234 l 297 234 l 195 0 q 120 -4 162 -4 q 82 -3 101 -4 q 48 0 63 -2 l 502 998 m 619 356 l 562 838 l 351 356 l 619 356 "},"6":{"x_min":148.625,"x_max":812.5625,"ha":833,"o":"m 790 1011 q 798 945 798 979 q 797 924 798 934 q 794 894 797 913 q 641 861 712 887 q 511 792 569 836 q 409 686 452 748 q 341 545 366 625 q 435 618 377 588 q 573 648 493 648 q 668 632 625 648 q 744 585 712 616 q 794 507 776 554 q 812 398 812 461 q 781 227 812 304 q 697 95 750 150 q 575 12 644 41 q 429 -16 505 -16 q 302 6 355 -16 q 214 69 248 29 q 164 165 180 109 q 148 286 148 220 q 190 536 148 412 q 313 760 231 659 q 513 928 394 861 q 790 1011 633 995 m 443 101 q 539 125 497 101 q 611 189 581 150 q 654 279 640 229 q 669 379 669 329 q 630 494 669 456 q 518 531 591 531 q 434 513 475 531 q 363 459 394 494 q 313 374 331 423 q 294 262 294 325 q 329 148 294 195 q 443 101 365 101 "},"O":{"x_min":155.5625,"x_max":990.359375,"ha":974,"o":"m 484 -16 q 339 9 401 -16 q 236 84 277 36 q 175 200 195 131 q 155 350 155 268 q 188 597 155 477 q 286 810 222 718 q 445 959 351 902 q 661 1015 540 1015 q 807 987 744 1015 q 909 911 869 959 q 970 794 950 862 q 990 645 990 726 q 956 395 990 515 q 857 184 922 276 q 699 38 793 93 q 484 -16 605 -16 m 500 105 q 645 153 581 105 q 752 278 708 201 q 818 452 795 355 q 841 644 841 548 q 795 823 841 757 q 644 890 748 890 q 497 843 561 890 q 390 719 433 795 q 325 546 347 643 q 302 351 302 450 q 350 170 302 234 q 500 105 398 105 "},"n":{"x_min":123.625,"x_max":784.78125,"ha":799,"o":"m 197 412 q 221 555 212 495 q 230 659 230 615 q 229 688 230 677 q 226 713 229 698 q 259 718 241 716 q 293 719 277 719 q 324 718 306 719 q 355 713 341 716 q 359 688 358 702 q 361 650 361 673 q 357 600 361 623 q 350 554 354 576 q 388 614 363 583 q 447 670 413 645 q 521 712 480 695 q 608 729 562 729 q 738 684 691 729 q 784 547 784 640 q 782 500 784 526 q 775 451 779 475 l 695 0 q 659 -4 679 -2 q 625 -5 640 -5 q 591 -4 609 -5 q 558 0 572 -2 l 633 427 q 639 470 637 450 q 641 506 641 491 q 616 586 641 562 q 547 609 590 609 q 473 586 509 609 q 405 519 437 563 q 347 409 373 475 q 306 259 322 344 l 261 0 q 225 -4 244 -2 q 190 -5 205 -5 q 156 -4 175 -5 q 123 0 137 -2 l 197 412 "},"3":{"x_min":73.609375,"x_max":819.515625,"ha":833,"o":"m 290 415 l 588 772 l 237 772 q 243 835 237 802 q 258 895 250 868 l 812 895 l 819 879 l 502 502 q 679 429 622 495 q 737 265 737 363 q 705 111 737 179 q 617 -4 673 43 q 485 -76 561 -51 q 323 -101 409 -101 q 193 -89 261 -101 q 73 -52 126 -77 q 92 4 80 -25 q 119 61 104 33 q 215 29 159 41 q 326 18 272 18 q 429 33 381 18 q 513 79 477 48 q 569 154 548 109 q 590 256 590 198 q 575 328 590 300 q 537 374 561 356 q 481 398 513 391 q 415 405 450 405 q 358 403 387 405 q 300 394 329 401 l 290 415 "},"9":{"x_min":166.6875,"x_max":827.84375,"ha":833,"o":"m 176 0 q 468 104 347 20 q 637 348 588 187 q 543 275 601 304 q 401 245 484 245 q 309 263 351 245 q 234 313 266 280 q 184 392 202 345 q 166 498 166 438 q 197 666 166 591 q 279 795 227 741 q 400 877 331 848 q 544 907 469 907 q 671 884 618 907 q 759 820 725 861 q 811 725 794 780 q 827 605 827 670 q 811 443 827 526 q 762 282 795 361 q 677 134 729 204 q 553 11 625 65 q 388 -77 481 -43 q 180 -118 295 -111 q 172 -44 172 -84 q 176 0 172 -20 m 458 361 q 542 379 501 361 q 615 432 583 398 q 666 516 647 466 q 686 629 686 566 q 677 691 686 662 q 649 741 668 719 q 602 775 630 762 q 536 787 575 787 q 438 764 480 787 q 367 702 395 741 q 324 614 338 663 q 309 513 309 565 q 348 397 309 434 q 458 361 387 361 "},"l":{"x_min":136.125,"x_max":409.75,"ha":413,"o":"m 240 732 q 261 866 254 809 q 270 966 269 922 q 270 993 270 983 q 269 1018 270 1002 q 306 1022 284 1020 q 343 1023 327 1023 q 374 1022 356 1023 q 406 1018 391 1020 q 409 993 409 1005 q 409 966 409 980 q 407 929 409 951 q 402 884 405 908 q 395 836 400 861 q 387 788 391 811 l 279 202 q 275 165 275 179 q 281 129 275 143 q 297 110 287 116 q 318 102 306 104 q 341 101 330 101 q 370 104 354 101 q 397 109 386 106 q 409 23 409 73 q 409 13 409 18 q 408 4 408 8 q 357 -6 387 -2 q 298 -9 327 -9 q 232 -2 262 -9 q 181 22 202 4 q 147 70 159 40 q 136 144 136 100 q 141 200 136 170 q 152 256 147 229 l 240 732 "},"¤":{"x_min":138.90625,"x_max":852.84375,"ha":833,"o":"m 244 319 q 208 395 220 354 q 195 483 195 437 q 209 572 195 530 q 248 650 223 613 l 138 761 q 175 811 154 791 q 223 843 195 830 l 333 732 q 409 768 368 755 q 495 780 450 780 q 582 768 541 780 q 659 732 623 755 l 770 843 q 817 807 795 827 q 852 762 838 787 l 743 652 q 784 573 769 616 q 798 483 798 530 q 784 394 798 436 q 745 316 769 352 l 851 211 q 772 129 820 158 l 662 237 q 495 187 588 187 q 327 237 401 187 l 220 130 q 170 165 190 144 q 138 213 151 187 l 244 319 m 495 298 q 567 313 534 298 q 623 352 600 327 q 661 411 647 377 q 675 483 675 444 q 661 555 675 522 q 623 613 647 588 q 567 653 600 638 q 495 668 534 668 q 425 653 458 668 q 369 613 393 638 q 332 555 345 588 q 319 483 319 522 q 332 411 319 444 q 369 352 345 377 q 425 313 393 327 q 495 298 458 298 "},"4":{"x_min":79.171875,"x_max":822.28125,"ha":833,"o":"m 79 123 l 595 922 q 658 904 627 918 q 709 870 688 890 l 297 230 l 563 230 l 612 505 q 647 509 627 508 q 683 511 666 511 q 717 509 698 511 q 750 505 736 508 l 701 230 l 822 230 q 816 167 822 200 q 801 108 811 134 l 680 108 l 645 -81 q 611 -85 630 -84 q 576 -86 591 -86 q 541 -85 559 -86 q 508 -81 522 -84 l 543 108 l 86 108 l 79 123 "},"p":{"x_min":54.171875,"x_max":794.515625,"ha":793,"o":"m 269 108 q 306 100 284 102 q 348 98 329 98 q 467 125 412 98 q 561 197 522 151 q 624 308 601 244 q 647 447 647 372 q 615 566 647 522 q 523 609 583 609 q 454 594 487 609 q 392 545 420 579 q 341 459 363 512 q 306 327 319 405 l 269 108 m 186 412 q 210 555 201 495 q 219 659 219 615 q 218 688 219 677 q 216 713 218 698 q 249 718 231 716 q 281 719 266 719 q 313 718 295 719 q 345 713 330 716 q 350 689 348 702 q 351 652 351 676 q 350 622 351 636 q 345 593 348 609 q 443 690 383 651 q 587 729 502 729 q 738 661 683 729 q 794 472 794 594 q 764 285 794 373 q 675 129 734 197 q 526 22 615 62 q 319 -16 437 -16 q 279 -15 297 -16 q 247 -11 262 -13 l 193 -327 q 156 -331 176 -330 q 123 -333 137 -333 q 89 -331 108 -333 q 54 -327 70 -330 l 186 412 "},"à":{"x_min":113.890625,"x_max":780.625,"ha":770,"o":"m 632 607 q 597 612 615 611 q 556 613 579 613 q 432 581 487 613 q 338 496 377 550 q 277 375 298 443 q 256 237 256 308 q 280 134 256 170 q 351 97 304 97 q 434 125 394 97 q 508 202 475 152 q 566 317 541 251 q 604 458 590 383 l 632 607 m 711 302 q 686 159 695 219 q 677 55 677 100 q 678 27 677 37 q 682 1 679 16 q 648 -2 666 -1 q 615 -4 630 -4 q 584 -2 601 -4 q 552 1 568 -1 q 548 32 550 16 q 547 72 547 48 q 550 113 547 87 q 558 161 554 140 q 518 99 543 130 q 460 42 493 68 q 386 0 427 16 q 298 -16 345 -16 q 160 43 206 -16 q 113 208 113 104 q 144 400 113 306 q 234 567 175 494 q 383 684 294 640 q 590 729 472 729 q 691 721 640 729 q 780 700 741 713 l 711 302 m 383 1001 q 424 1005 404 1004 q 469 1007 445 1007 q 515 1005 492 1007 q 559 1001 538 1004 l 687 825 q 620 819 655 819 q 581 820 599 819 q 548 825 563 822 l 383 1001 "},"Ü":{"x_min":175.015625,"x_max":976.46875,"ha":921,"o":"m 294 998 q 331 1002 312 1001 q 368 1004 350 1004 q 403 1002 386 1004 q 437 998 420 1001 l 337 431 q 320 269 320 336 q 356 147 320 184 q 479 111 391 111 q 581 131 538 111 q 652 191 623 151 q 701 292 682 231 q 734 431 720 352 l 833 998 q 870 1002 852 1001 q 907 1004 887 1004 q 942 1002 923 1004 q 976 998 961 1001 l 870 397 q 822 219 852 297 q 745 89 793 141 q 627 10 697 37 q 458 -16 556 -16 q 245 51 315 -16 q 175 262 175 119 q 179 330 175 294 q 190 406 183 366 l 294 998 m 436 1080 q 459 1220 436 1152 q 497 1225 479 1223 q 533 1226 516 1226 q 570 1225 551 1226 q 605 1220 590 1223 q 581 1080 605 1148 q 543 1076 562 1077 q 506 1075 525 1075 q 471 1076 490 1075 q 436 1080 452 1077 m 733 1080 q 757 1220 733 1150 q 794 1225 775 1223 q 830 1226 813 1226 q 867 1225 848 1226 q 902 1220 886 1223 q 879 1080 900 1150 q 841 1076 859 1077 q 804 1075 822 1075 q 768 1076 787 1075 q 733 1080 748 1077 "},"ó":{"x_min":123.625,"x_max":780.625,"ha":774,"o":"m 383 -16 q 188 54 254 -16 q 123 256 123 126 q 147 417 123 333 q 220 570 170 501 q 343 684 269 638 q 519 729 418 729 q 715 656 650 729 q 780 454 780 584 q 757 293 780 376 q 684 140 733 209 q 561 27 636 72 q 383 -16 486 -16 m 397 93 q 509 128 462 93 q 584 218 555 163 q 627 335 613 272 q 641 454 641 398 q 606 575 641 533 q 505 616 570 616 q 394 580 440 616 q 319 490 348 544 q 277 372 290 436 q 263 255 263 309 q 297 134 263 176 q 397 93 331 93 m 558 1001 q 602 1005 580 1004 q 648 1007 625 1007 q 693 1005 672 1007 q 734 1001 714 1004 l 562 825 q 528 820 547 822 q 489 819 509 819 q 457 820 473 819 q 423 825 440 822 l 558 1001 "}}}
